<svg width="34" height="34" viewBox="0 0 34 34" fill="none" xmlns="http://www.w3.org/2000/svg">
<path d="M22.6667 31.1663C24.225 31.1663 25.5 29.8913 25.5 28.333L25.4858 23.828C25.4858 23.0772 25.1883 22.3688 24.6642 21.8305L19.8333 16.9997L24.6642 12.1405C25.1883 11.6163 25.4858 10.8938 25.4858 10.143L25.5 5.66634C25.5 4.10801 24.225 2.83301 22.6667 2.83301H11.3333C9.775 2.83301 8.5 4.10801 8.5 5.66634V10.143C8.5 10.8938 8.7975 11.6163 9.32167 12.1547L14.1667 16.9997L9.33583 21.8163C8.7975 22.3547 8.5 23.0772 8.5 23.828V28.333C8.5 29.8913 9.775 31.1663 11.3333 31.1663H22.6667ZM11.3333 10.0438V7.08301C11.3333 6.30384 11.9708 5.66634 12.75 5.66634H21.25C22.0292 5.66634 22.6667 6.30384 22.6667 7.08301V10.0438C22.6667 10.4263 22.5108 10.7805 22.2558 11.0497L17 16.2913L11.7442 11.0355C11.4892 10.7805 11.3333 10.4122 11.3333 10.0438Z" fill="#30A6CA"/>
</svg>
