<svg width="34" height="34" viewBox="0 0 34 34" fill="none" xmlns="http://www.w3.org/2000/svg">
<path d="M24.0833 9.91699H19.8333C19.0541 9.91699 18.4166 10.5545 18.4166 11.3337C18.4166 12.1128 19.0541 12.7503 19.8333 12.7503H24.0833C26.4208 12.7503 28.3333 14.6628 28.3333 17.0003C28.3333 19.3378 26.4208 21.2503 24.0833 21.2503H19.8333C19.0541 21.2503 18.4166 21.8878 18.4166 22.667C18.4166 23.4462 19.0541 24.0837 19.8333 24.0837H24.0833C27.9933 24.0837 31.1666 20.9103 31.1666 17.0003C31.1666 13.0903 27.9933 9.91699 24.0833 9.91699ZM11.3333 17.0003C11.3333 17.7795 11.9708 18.417 12.7499 18.417H21.2499C22.0291 18.417 22.6666 17.7795 22.6666 17.0003C22.6666 16.2212 22.0291 15.5837 21.2499 15.5837H12.7499C11.9708 15.5837 11.3333 16.2212 11.3333 17.0003ZM14.1666 21.2503H9.91659C7.57909 21.2503 5.66659 19.3378 5.66659 17.0003C5.66659 14.6628 7.57909 12.7503 9.91659 12.7503H14.1666C14.9458 12.7503 15.5833 12.1128 15.5833 11.3337C15.5833 10.5545 14.9458 9.91699 14.1666 9.91699H9.91659C6.00659 9.91699 2.83325 13.0903 2.83325 17.0003C2.83325 20.9103 6.00659 24.0837 9.91659 24.0837H14.1666C14.9458 24.0837 15.5833 23.4462 15.5833 22.667C15.5833 21.8878 14.9458 21.2503 14.1666 21.2503Z" fill="#30A6CA"/>
</svg>
