<svg width="34" height="34" viewBox="0 0 34 34" fill="none" xmlns="http://www.w3.org/2000/svg">
<path d="M27.5683 14.166C27.4286 14.3725 27.3458 14.6123 27.3284 14.861C27.311 15.1098 27.3596 15.3587 27.4692 15.5827C27.8208 16.4033 28.0683 17.2647 28.2058 18.1468C28.5705 20.4279 28.2294 22.7659 27.2283 24.8477C27.1068 25.076 26.925 25.2667 26.7027 25.3991C26.4804 25.5314 26.2262 25.6004 25.9675 25.5985H8.04667C7.78653 25.599 7.53126 25.5279 7.30886 25.393C7.08645 25.2581 6.9055 25.0645 6.78583 24.8335C5.87899 22.9939 5.48837 20.9426 5.65559 18.8985C5.82282 16.8543 6.54163 14.8938 7.7354 13.226C8.92917 11.5583 10.5531 10.2457 12.4342 9.42823C14.3153 8.61079 16.3829 8.31913 18.4167 8.58433C19.4457 8.70528 20.4522 8.97242 21.4058 9.37767C21.6298 9.48728 21.8787 9.53583 22.1275 9.51842C22.3762 9.50101 22.616 9.41825 22.8225 9.2785C23.0377 9.13675 23.2101 8.93901 23.3212 8.70656C23.4324 8.4741 23.478 8.21574 23.4532 7.95928C23.4285 7.70282 23.3342 7.45797 23.1806 7.25108C23.0271 7.0442 22.82 6.88311 22.5817 6.78517C19.8449 5.61168 16.808 5.33037 13.9023 5.98121C10.9966 6.63204 8.36987 8.18191 6.39519 10.4107C4.42052 12.6394 3.19834 15.4338 2.90225 18.3967C2.60617 21.3596 3.25124 24.3406 4.74583 26.916C4.99306 27.3442 5.34804 27.7003 5.77551 27.9488C6.20298 28.1974 6.68804 28.3297 7.1825 28.3327H26.8033C27.3026 28.3347 27.7935 28.2047 28.2264 27.9559C28.6593 27.7071 29.0187 27.3484 29.2683 26.916C30.3625 25.0197 31.0023 22.8956 31.1375 20.7105C31.2727 18.5253 30.8996 16.3385 30.0475 14.3218C29.9396 14.092 29.7719 13.8954 29.5619 13.7526C29.3519 13.6098 29.1075 13.526 28.854 13.5101C28.6006 13.4942 28.3476 13.5466 28.1214 13.662C27.8952 13.7774 27.7042 13.9515 27.5683 14.166Z" fill="#30A6CA"/>
<path d="M15.0024 17.8357C14.4708 18.3674 14.1721 19.0884 14.1721 19.8403C14.1721 20.2126 14.2454 20.5812 14.3879 20.9252C14.5304 21.2691 14.7392 21.5816 15.0024 21.8449C15.2657 22.1081 15.5782 22.3169 15.9222 22.4594C16.2661 22.6019 16.6347 22.6752 17.007 22.6752C17.7589 22.6752 18.48 22.3765 19.0116 21.8449L27.0299 9.81738L15.0024 17.8357Z" fill="#30A6CA"/>
</svg>
