<svg width="34" height="34" viewBox="0 0 34 34" fill="none" xmlns="http://www.w3.org/2000/svg">
<path d="M32.5834 17L29.1267 13.0475L29.6084 7.82L24.4942 6.65833L21.8167 2.125L17.0001 4.19333L12.1834 2.125L9.50591 6.64417L4.39175 7.79167L4.87341 13.0333L1.41675 17L4.87341 20.9525L4.39175 26.1942L9.50591 27.3558L12.1834 31.875L17.0001 29.7925L21.8167 31.8608L24.4942 27.3417L29.6084 26.18L29.1267 20.9525L32.5834 17ZM13.2884 22.6808L9.91675 19.2808C9.36425 18.7283 9.36425 17.8358 9.91675 17.2833L10.0159 17.1842C10.5684 16.6317 11.4751 16.6317 12.0276 17.1842L14.3084 19.4792L21.6042 12.1692C22.1567 11.6167 23.0634 11.6167 23.6159 12.1692L23.7151 12.2683C24.2676 12.8208 24.2676 13.7133 23.7151 14.2658L15.3284 22.6808C14.7476 23.2333 13.8551 23.2333 13.2884 22.6808Z" fill="#30A6CA"/>
</svg>
