<svg width="34" height="34" viewBox="0 0 34 34" fill="none" xmlns="http://www.w3.org/2000/svg">
<path d="M16.9999 2.83301C9.20825 2.83301 2.83325 9.20801 2.83325 16.9997C2.83325 24.7913 9.20825 31.1663 16.9999 31.1663C24.7916 31.1663 31.1666 24.7913 31.1666 16.9997C31.1666 9.20801 24.7916 2.83301 16.9999 2.83301ZM22.0291 22.383L16.2491 18.8272C15.8241 18.5722 15.5691 18.1188 15.5691 17.623V10.9788C15.5833 10.398 16.0649 9.91634 16.6458 9.91634C17.2266 9.91634 17.7083 10.398 17.7083 10.9788V17.283L23.1483 20.5555C23.6583 20.8672 23.8283 21.533 23.5166 22.043C23.2049 22.5388 22.5391 22.6947 22.0291 22.383Z" fill="#30A6CA"/>
</svg>
