<svg width="34" height="34" viewBox="0 0 34 34" fill="none" xmlns="http://www.w3.org/2000/svg">
<path d="M20.6692 3.66884C20.1309 3.13051 19.4084 2.83301 18.6576 2.83301H8.50008C6.94175 2.83301 5.66675 4.10801 5.66675 5.66634V28.333C5.66675 29.8913 6.92758 31.1663 8.48591 31.1663H25.5001C27.0584 31.1663 28.3334 29.8913 28.3334 28.333V12.5088C28.3334 11.758 28.0359 11.0355 27.4976 10.5113L20.6692 3.66884ZM21.2501 25.4997H12.7501C11.9709 25.4997 11.3334 24.8622 11.3334 24.083C11.3334 23.3038 11.9709 22.6663 12.7501 22.6663H21.2501C22.0292 22.6663 22.6667 23.3038 22.6667 24.083C22.6667 24.8622 22.0292 25.4997 21.2501 25.4997ZM21.2501 19.833H12.7501C11.9709 19.833 11.3334 19.1955 11.3334 18.4163C11.3334 17.6372 11.9709 16.9997 12.7501 16.9997H21.2501C22.0292 16.9997 22.6667 17.6372 22.6667 18.4163C22.6667 19.1955 22.0292 19.833 21.2501 19.833ZM18.4167 11.333V4.95801L26.2084 12.7497H19.8334C19.0542 12.7497 18.4167 12.1122 18.4167 11.333Z" fill="#30A6CA"/>
</svg>
