<svg width="34" height="34" viewBox="0 0 34 34" fill="none" xmlns="http://www.w3.org/2000/svg">
<path d="M28.3333 17.0003C28.3333 15.9237 28.9425 14.9887 29.835 14.507C30.685 14.0395 31.1666 13.0762 31.1666 12.0987V8.50033C31.1666 6.94199 29.8916 5.66699 28.3333 5.66699H5.66665C4.10831 5.66699 2.84748 6.92782 2.84748 8.48616V12.0987C2.84748 13.0762 3.31498 14.0395 4.17915 14.4928C5.07165 14.9887 5.66665 15.9237 5.66665 17.0003C5.66665 18.077 5.05748 19.0262 4.16498 19.4937C3.31498 19.9612 2.83331 20.9245 2.83331 21.902V25.5003C2.83331 27.0587 4.10831 28.3337 5.66665 28.3337H28.3333C29.8916 28.3337 31.1666 27.0587 31.1666 25.5003V21.902C31.1666 20.9245 30.685 19.9612 29.835 19.4937C28.9425 19.012 28.3333 18.077 28.3333 17.0003ZM20.5416 22.8087L17 20.542L13.4583 22.8228C12.92 23.1628 12.2258 22.667 12.3958 22.0437L13.4583 17.9637L10.2 15.3003C9.70415 14.8895 9.95915 14.082 10.6108 14.0395L14.8041 13.7987L16.3341 9.90282C16.575 9.30782 17.425 9.30782 17.6516 9.90282L19.1816 13.8128L23.375 14.0537C24.0125 14.0962 24.2816 14.9037 23.7858 15.3145L20.5275 17.9778L21.6041 22.0295C21.7741 22.667 21.08 23.1628 20.5416 22.8087Z" fill="#30A6CA"/>
</svg>
