<svg width="34" height="34" viewBox="0 0 34 34" fill="none" xmlns="http://www.w3.org/2000/svg">
<path d="M16.9859 2.83301C9.16587 2.83301 2.83337 9.17967 2.83337 16.9997C2.83337 24.8197 9.16587 31.1663 16.9859 31.1663C24.82 31.1663 31.1667 24.8197 31.1667 16.9997C31.1667 9.17967 24.82 2.83301 16.9859 2.83301ZM26.8034 11.333H22.6242C22.1709 9.56217 21.5192 7.86217 20.6692 6.28967C23.2759 7.18217 25.4434 8.99551 26.8034 11.333ZM17 5.72301C18.1759 7.42301 19.0967 9.30717 19.7059 11.333H14.2942C14.9034 9.30717 15.8242 7.42301 17 5.72301ZM6.03504 19.833C5.80837 18.9263 5.66671 17.9772 5.66671 16.9997C5.66671 16.0222 5.80837 15.073 6.03504 14.1663H10.8234C10.71 15.1013 10.625 16.0363 10.625 16.9997C10.625 17.963 10.71 18.898 10.8234 19.833H6.03504ZM7.19671 22.6663H11.3759C11.8292 24.4372 12.4809 26.1372 13.3309 27.7097C10.7242 26.8172 8.55671 25.018 7.19671 22.6663ZM11.3759 11.333H7.19671C8.55671 8.98134 10.7242 7.18217 13.3309 6.28967C12.4809 7.86217 11.8292 9.56217 11.3759 11.333ZM17 28.2763C15.8242 26.5763 14.9034 24.6922 14.2942 22.6663H19.7059C19.0967 24.6922 18.1759 26.5763 17 28.2763ZM20.315 19.833H13.685C13.5575 18.898 13.4584 17.963 13.4584 16.9997C13.4584 16.0363 13.5575 15.0872 13.685 14.1663H20.315C20.4425 15.0872 20.5417 16.0363 20.5417 16.9997C20.5417 17.963 20.4425 18.898 20.315 19.833ZM20.6692 27.7097C21.5192 26.1372 22.1709 24.4372 22.6242 22.6663H26.8034C25.4434 25.0038 23.2759 26.8172 20.6692 27.7097ZM23.1767 19.833C23.29 18.898 23.375 17.963 23.375 16.9997C23.375 16.0363 23.29 15.1013 23.1767 14.1663H27.965C28.1917 15.073 28.3334 16.0222 28.3334 16.9997C28.3334 17.9772 28.1917 18.9263 27.965 19.833H23.1767Z" fill="#30A6CA"/>
</svg>
