<svg width="34" height="34" viewBox="0 0 34 34" fill="none" xmlns="http://www.w3.org/2000/svg">
<path d="M17 2.83301C9.18001 2.83301 2.83334 9.17967 2.83334 16.9997C2.83334 24.8197 9.18001 31.1663 17 31.1663C24.82 31.1663 31.1667 24.8197 31.1667 16.9997C31.1667 9.17967 24.82 2.83301 17 2.83301ZM17 7.08301C19.3517 7.08301 21.25 8.98134 21.25 11.333C21.25 13.6847 19.3517 15.583 17 15.583C14.6483 15.583 12.75 13.6847 12.75 11.333C12.75 8.98134 14.6483 7.08301 17 7.08301ZM17 27.1997C13.4583 27.1997 10.3275 25.3863 8.50001 22.638C8.54251 19.8188 14.1667 18.2747 17 18.2747C19.8192 18.2747 25.4575 19.8188 25.5 22.638C23.6725 25.3863 20.5417 27.1997 17 27.1997Z" fill="#30A6CA"/>
</svg>
