<svg width="34" height="34" viewBox="0 0 34 34" fill="none" xmlns="http://www.w3.org/2000/svg">
<path d="M9.91669 25.4997C8.35835 25.4997 7.09752 26.7747 7.09752 28.333C7.09752 29.8913 8.35835 31.1663 9.91669 31.1663C11.475 31.1663 12.75 29.8913 12.75 28.333C12.75 26.7747 11.475 25.4997 9.91669 25.4997ZM1.41669 2.83301V5.66634H4.25002L9.35002 16.4188L7.43752 19.8897C7.21085 20.2863 7.08335 20.7538 7.08335 21.2497C7.08335 22.808 8.35835 24.083 9.91669 24.083H26.9167V21.2497H10.5117C10.3134 21.2497 10.1575 21.0938 10.1575 20.8955L10.2 20.7255L11.475 18.4163H22.0292C23.0917 18.4163 24.0267 17.8355 24.5084 16.9572L29.58 7.76301C29.6934 7.56467 29.75 7.32384 29.75 7.08301C29.75 6.30384 29.1125 5.66634 28.3334 5.66634H7.38085L6.04919 2.83301H1.41669ZM24.0834 25.4997C22.525 25.4997 21.2642 26.7747 21.2642 28.333C21.2642 29.8913 22.525 31.1663 24.0834 31.1663C25.6417 31.1663 26.9167 29.8913 26.9167 28.333C26.9167 26.7747 25.6417 25.4997 24.0834 25.4997Z" fill="#30A6CA"/>
</svg>
