<svg width="34" height="34" viewBox="0 0 34 34" fill="none" xmlns="http://www.w3.org/2000/svg">
<path d="M32.5834 11.3337V25.5003C32.5834 27.0587 31.3084 28.3337 29.75 28.3337H7.08335C6.30419 28.3337 5.66669 27.6962 5.66669 26.917C5.66669 26.1378 6.30419 25.5003 7.08335 25.5003H29.75V11.3337C29.75 10.5545 30.3875 9.91699 31.1667 9.91699C31.9459 9.91699 32.5834 10.5545 32.5834 11.3337ZM5.66669 22.667C3.31502 22.667 1.41669 20.7687 1.41669 18.417V9.91699C1.41669 7.56533 3.31502 5.66699 5.66669 5.66699H22.6667C25.0184 5.66699 26.9167 7.56533 26.9167 9.91699V19.8337C26.9167 21.392 25.6417 22.667 24.0834 22.667H5.66669ZM9.91669 14.167C9.91669 16.5187 11.815 18.417 14.1667 18.417C16.5184 18.417 18.4167 16.5187 18.4167 14.167C18.4167 11.8153 16.5184 9.91699 14.1667 9.91699C11.815 9.91699 9.91669 11.8153 9.91669 14.167Z" fill="#30A6CA"/>
</svg>
