<svg width="34" height="34" viewBox="0 0 34 34" fill="none" xmlns="http://www.w3.org/2000/svg">
<path d="M24.0834 1.41699H9.91671C8.35837 1.41699 7.08337 2.69199 7.08337 4.25033V29.7503C7.08337 31.3087 8.35837 32.5837 9.91671 32.5837H24.0834C25.6417 32.5837 26.9167 31.3087 26.9167 29.7503V4.25033C26.9167 2.69199 25.6417 1.41699 24.0834 1.41699ZM24.0834 21.5478C21.9584 20.457 19.55 19.8337 17 19.8337C14.45 19.8337 12.0417 20.457 9.91671 21.5478V8.50033H24.0834V21.5478Z" fill="#30A6CA"/>
<path d="M17 18.417C19.3472 18.417 21.25 16.5142 21.25 14.167C21.25 11.8198 19.3472 9.91699 17 9.91699C14.6528 9.91699 12.75 11.8198 12.75 14.167C12.75 16.5142 14.6528 18.417 17 18.417Z" fill="#30A6CA"/>
</svg>
