<svg width="34" height="34" viewBox="0 0 34 34" fill="none" xmlns="http://www.w3.org/2000/svg">
<g clip-path="url(#clip0)">
<path d="M17 3.54199C9.18001 3.54199 2.83334 9.88866 2.83334 17.7087C2.83334 25.5287 9.18001 31.8753 17 31.8753C24.82 31.8753 31.1667 25.5287 31.1667 17.7087C31.1667 9.88866 24.82 3.54199 17 3.54199ZM17 7.79199C19.3517 7.79199 21.25 9.69033 21.25 12.042C21.25 14.3937 19.3517 16.292 17 16.292C14.6483 16.292 12.75 14.3937 12.75 12.042C12.75 9.69033 14.6483 7.79199 17 7.79199ZM17 27.9087C13.4583 27.9087 10.3275 26.0953 8.50001 23.347C8.54251 20.5278 14.1667 18.9837 17 18.9837C19.8192 18.9837 25.4575 20.5278 25.5 23.347C23.6725 26.0953 20.5417 27.9087 17 27.9087Z" fill="#30A6CA"/>
</g>
<defs>
<clipPath id="clip0">
<rect width="34" height="34" fill="white"/>
</clipPath>
</defs>
</svg>
