<svg width="34" height="34" viewBox="0 0 34 34" fill="none" xmlns="http://www.w3.org/2000/svg">
<path d="M28.3333 5.66699H5.66668C4.10834 5.66699 2.84751 6.94199 2.84751 8.50033L2.83334 25.5003C2.83334 27.0587 4.10834 28.3337 5.66668 28.3337H28.3333C29.8917 28.3337 31.1667 27.0587 31.1667 25.5003V8.50033C31.1667 6.94199 29.8917 5.66699 28.3333 5.66699ZM27.7667 11.6878L17.7508 17.9495C17.2975 18.2328 16.7025 18.2328 16.2492 17.9495L6.23334 11.6878C5.87918 11.4612 5.66668 11.0787 5.66668 10.6678C5.66668 9.71866 6.70084 9.15199 7.50834 9.64783L17 15.5837L26.4917 9.64783C27.2992 9.15199 28.3333 9.71866 28.3333 10.6678C28.3333 11.0787 28.1208 11.4612 27.7667 11.6878Z" fill="#30A6CA"/>
</svg>
