<svg width="511" height="308" viewBox="0 0 511 308" fill="none" xmlns="http://www.w3.org/2000/svg">
<path d="M511 280.757H0.0458984V282.047H511V280.757Z" fill="#3F3D56"/>
<path d="M80.7736 147.164C80.7736 147.164 76.7946 195.036 75.9402 205.294C75.3544 211.724 73.9179 218.048 71.6685 224.1C71.6685 224.1 69.9599 227.519 69.9599 230.939V274.535C69.9599 274.535 66.5425 274.535 67.3969 277.954C68.2512 281.374 69.1056 287.357 69.1056 287.357H81.9206C81.9206 287.357 81.0662 284.793 83.6292 283.938C86.1922 283.083 83.6292 276.245 83.6292 276.245L97.2986 224.955L117.803 182.213C117.803 182.213 129.763 220.681 132.326 224.955C132.326 224.955 141.724 272.825 143.433 277.099C145.141 281.374 145.996 281.374 145.141 283.083C144.287 284.793 144.287 286.503 145.141 287.357C145.996 288.212 162.228 287.357 162.228 287.357L157.956 226.664L150.267 154.004L110.968 142.036L80.7736 147.164Z" fill="#2F2E41"/>
<path d="M78.5027 280.52C78.5027 280.52 74.231 265.133 67.3963 277.1C60.5616 289.068 60.5616 293.342 60.5616 293.342C60.5616 293.342 49.4553 309.584 64.8333 307.874C80.2113 306.165 76.794 298.471 76.794 298.471C76.794 298.471 82.7743 295.052 82.7743 292.487C82.7743 289.923 78.5027 280.52 78.5027 280.52Z" fill="#2F2E41"/>
<path d="M147.704 278.81C147.704 278.81 151.976 263.423 158.811 275.39C165.645 287.358 165.645 291.632 165.645 291.632C165.645 291.632 176.752 307.874 161.374 306.164C145.996 304.455 149.413 296.761 149.413 296.761C149.413 296.761 143.433 293.342 143.433 290.777C143.433 288.213 147.704 278.81 147.704 278.81Z" fill="#2F2E41"/>
<path d="M107.55 31.7637C107.55 31.7637 109.259 42.8765 104.133 45.441C99.0069 48.0055 115.239 57.4086 119.511 57.4086C123.783 57.4086 131.472 48.8603 131.472 48.8603C131.472 48.8603 127.2 36.0378 128.054 33.4733L107.55 31.7637Z" fill="#A0616A"/>
<path d="M116.948 40.3121C126.856 40.3121 134.889 32.2749 134.889 22.3606C134.889 12.4463 126.856 4.40918 116.948 4.40918C107.039 4.40918 99.0068 12.4463 99.0068 22.3606C99.0068 32.2749 107.039 40.3121 116.948 40.3121Z" fill="#A0616A"/>
<path d="M151.976 59.1181L130.618 46.1706C130.618 46.1706 118.466 59.9729 105.319 44.5859L82.7748 50.5697L86.1922 108.698C86.1922 108.698 81.0662 131.779 82.7748 136.053C84.4835 140.327 78.5032 142.037 80.2118 142.891C81.9205 143.746 80.2118 149.73 80.2118 149.73C80.2118 149.73 113.531 166.827 150.267 154.004L146.85 142.891C147.315 141.439 147.402 139.891 147.103 138.396C146.804 136.9 146.129 135.505 145.141 134.343C145.141 134.343 148.559 129.214 144.287 124.94C144.287 124.94 145.996 117.247 141.724 113.827L140.87 101.86L143.433 95.8758L151.976 59.1181Z" fill="#CFCCE0"/>
<path d="M107.766 14.025C107.766 14.025 105.627 18.6566 114.183 16.804C114.183 16.804 117.392 18.6566 117.392 15.8777C117.392 15.8777 121.669 20.5093 122.739 17.7303C123.808 14.9513 125.947 18.6566 125.947 18.6566L128.086 14.025L130.225 16.804H137.711C137.711 16.804 139.85 -1.72241 114.183 0.130231C88.5159 1.98287 101.143 31.3361 101.143 31.3361C101.143 31.3361 101.349 26.0672 103.488 28.8461C105.627 31.6251 107.766 14.025 107.766 14.025Z" fill="#2F2E41"/>
<path d="M159.664 93.3115L160.519 111.263C160.519 111.263 163.936 144.601 157.101 159.133V166.827C157.101 166.827 155.393 186.488 146.849 185.633C138.306 184.778 149.412 157.424 149.412 157.424L147.704 119.811L145.995 98.4405L159.664 93.3115Z" fill="#A0616A"/>
<path d="M240.705 50.2168H105.883V117.229H240.705V50.2168Z" fill="white"/>
<path d="M136.881 95.6035H115.233C114.593 95.6028 113.959 95.7284 113.367 95.973C112.775 96.2176 112.238 96.5765 111.785 97.0291C111.332 97.4818 110.973 98.0193 110.728 98.6109C110.483 99.2026 110.356 99.8368 110.356 100.477C110.356 101.118 110.483 101.752 110.728 102.344C110.973 102.935 111.332 103.473 111.785 103.925C112.238 104.378 112.775 104.737 113.367 104.982C113.959 105.226 114.593 105.352 115.233 105.351H136.881C137.521 105.352 138.155 105.226 138.747 104.982C139.338 104.737 139.876 104.378 140.329 103.925C140.782 103.473 141.141 102.935 141.386 102.344C141.631 101.752 141.757 101.118 141.757 100.477C141.757 99.8368 141.631 99.2026 141.386 98.6109C141.141 98.0193 140.782 97.4818 140.329 97.0291C139.876 96.5765 139.338 96.2176 138.747 95.973C138.155 95.7284 137.521 95.6028 136.881 95.6035Z" fill="#44AECF"/>
<path d="M234.913 44.1582H113.536C112.124 44.1582 110.726 44.4365 109.421 44.9771C108.117 45.5177 106.932 46.3102 105.933 47.3092C104.935 48.3081 104.143 49.4941 103.603 50.7993C103.062 52.1046 102.784 53.5035 102.784 54.9163V114.088C102.784 116.941 103.917 119.677 105.933 121.695C107.95 123.712 110.684 124.846 113.536 124.846H234.913C237.764 124.846 240.499 123.712 242.515 121.695C244.532 119.677 245.665 116.941 245.665 114.088V54.9163C245.665 53.5035 245.386 52.1046 244.846 50.7993C244.306 49.4941 243.514 48.3081 242.515 47.3092C241.517 46.3102 240.332 45.5177 239.027 44.9771C237.723 44.4365 236.325 44.1582 234.913 44.1582ZM110.533 51.4969C110.773 51.4535 116.456 50.4857 121.162 53.3192C125.868 56.1522 127.677 61.6304 127.751 61.862L127.941 62.4527L127.331 62.5612C126.459 62.6972 125.578 62.762 124.697 62.7547C121.899 62.8082 119.139 62.112 116.701 60.7383C111.995 57.9058 110.187 52.4276 110.112 52.196L109.922 51.6053L110.533 51.4969ZM136.881 106.434H115.232C113.653 106.434 112.139 105.806 111.022 104.689C109.906 103.572 109.279 102.057 109.279 100.477C109.279 98.8973 109.906 97.3821 111.022 96.265C112.139 95.1479 113.653 94.5203 115.232 94.5203H136.881C138.46 94.5203 139.974 95.1479 141.09 96.265C142.207 97.3821 142.834 98.8973 142.834 100.477C142.834 102.057 142.207 103.572 141.09 104.689C139.974 105.806 138.46 106.434 136.881 106.434ZM235.381 105.351C235.376 107.073 234.691 108.723 233.474 109.94C232.257 111.158 230.608 111.844 228.887 111.849H212.65C210.93 111.844 209.281 111.158 208.064 109.94C206.847 108.723 206.161 107.073 206.156 105.351V95.6034C206.161 93.8815 206.847 92.2315 208.064 91.0139C209.281 89.7963 210.93 89.1101 212.65 89.105H228.887C230.608 89.1101 232.257 89.7963 233.474 91.0139C234.691 92.2315 235.376 93.8815 235.381 95.6034V105.351Z" fill="#44AECF"/>
<path d="M217.792 103.456H210.757C210.254 103.456 209.772 103.656 209.417 104.011C209.062 104.367 208.862 104.849 208.862 105.351C208.862 105.854 209.062 106.336 209.417 106.692C209.772 107.047 210.254 107.247 210.757 107.247H217.792C218.295 107.247 218.777 107.047 219.132 106.692C219.487 106.336 219.687 105.854 219.687 105.351C219.687 104.849 219.487 104.367 219.132 104.011C218.777 103.656 218.295 103.456 217.792 103.456ZM217.792 106.164H210.757C210.65 106.164 210.544 106.143 210.445 106.102C210.346 106.062 210.257 106.002 210.181 105.927C210.105 105.851 210.045 105.761 210.005 105.663C209.964 105.564 209.943 105.458 209.943 105.351C209.943 105.245 209.964 105.139 210.005 105.04C210.045 104.941 210.105 104.852 210.181 104.776C210.257 104.701 210.346 104.641 210.445 104.6C210.544 104.56 210.65 104.539 210.757 104.539H217.792C218.007 104.54 218.213 104.626 218.365 104.778C218.517 104.93 218.602 105.136 218.602 105.351C218.602 105.566 218.517 105.773 218.365 105.925C218.213 106.077 218.007 106.163 217.792 106.164Z" fill="#44AECF"/>
<path d="M230.782 103.456H223.746C223.243 103.456 222.762 103.656 222.406 104.011C222.051 104.367 221.852 104.849 221.852 105.351C221.852 105.854 222.051 106.336 222.406 106.692C222.762 107.047 223.243 107.247 223.746 107.247H230.782C231.284 107.247 231.766 107.047 232.121 106.692C232.476 106.336 232.676 105.854 232.676 105.351C232.676 104.849 232.476 104.367 232.121 104.011C231.766 103.656 231.284 103.456 230.782 103.456ZM230.782 106.164H223.746C223.639 106.164 223.533 106.143 223.434 106.102C223.336 106.062 223.246 106.002 223.17 105.927C223.095 105.851 223.035 105.761 222.994 105.663C222.953 105.564 222.932 105.458 222.932 105.351C222.932 105.245 222.953 105.139 222.994 105.04C223.035 104.941 223.095 104.852 223.17 104.776C223.246 104.701 223.336 104.641 223.434 104.6C223.533 104.56 223.639 104.539 223.746 104.539H230.782C230.997 104.54 231.202 104.626 231.354 104.778C231.506 104.93 231.591 105.136 231.591 105.351C231.591 105.566 231.506 105.773 231.354 105.925C231.202 106.077 230.997 106.163 230.782 106.164Z" fill="#44AECF"/>
<path d="M217.792 98.582H210.757C210.254 98.582 209.772 98.7817 209.417 99.1372C209.062 99.4926 208.862 99.9747 208.862 100.477C208.862 100.98 209.062 101.462 209.417 101.818C209.772 102.173 210.254 102.373 210.757 102.373H217.792C218.295 102.373 218.777 102.173 219.132 101.818C219.487 101.462 219.687 100.98 219.687 100.477C219.687 99.9747 219.487 99.4926 219.132 99.1372C218.777 98.7817 218.295 98.582 217.792 98.582ZM217.792 101.29H210.757C210.65 101.29 210.544 101.269 210.446 101.228C210.347 101.187 210.258 101.127 210.183 101.052C210.107 100.976 210.047 100.887 210.007 100.788C209.966 100.69 209.945 100.584 209.945 100.477C209.945 100.371 209.966 100.265 210.007 100.167C210.047 100.068 210.107 99.9784 210.183 99.903C210.258 99.8276 210.347 99.7678 210.446 99.7269C210.544 99.6861 210.65 99.6651 210.757 99.6651H217.792C217.899 99.6651 218.004 99.6861 218.103 99.7269C218.201 99.7678 218.291 99.8276 218.366 99.903C218.442 99.9784 218.502 100.068 218.542 100.167C218.583 100.265 218.604 100.371 218.604 100.477C218.604 100.584 218.583 100.69 218.542 100.788C218.502 100.887 218.442 100.976 218.366 101.052C218.291 101.127 218.201 101.187 218.103 101.228C218.004 101.269 217.899 101.29 217.792 101.29Z" fill="#44AECF"/>
<path d="M230.782 98.582H223.746C223.243 98.582 222.762 98.7817 222.406 99.1372C222.051 99.4926 221.852 99.9747 221.852 100.477C221.852 100.98 222.051 101.462 222.406 101.818C222.762 102.173 223.243 102.373 223.746 102.373H230.782C231.284 102.373 231.766 102.173 232.121 101.818C232.476 101.462 232.676 100.98 232.676 100.477C232.676 99.9747 232.476 99.4926 232.121 99.1372C231.766 98.7817 231.284 98.582 230.782 98.582ZM230.782 101.29H223.746C223.639 101.29 223.534 101.269 223.435 101.228C223.337 101.187 223.247 101.127 223.172 101.052C223.096 100.976 223.037 100.887 222.996 100.788C222.955 100.69 222.934 100.584 222.934 100.477C222.934 100.371 222.955 100.265 222.996 100.167C223.037 100.068 223.096 99.9784 223.172 99.903C223.247 99.8276 223.337 99.7678 223.435 99.7269C223.534 99.6861 223.639 99.6651 223.746 99.6651H230.782C230.888 99.6651 230.994 99.6861 231.092 99.7269C231.191 99.7678 231.28 99.8276 231.356 99.903C231.431 99.9784 231.491 100.068 231.532 100.167C231.572 100.265 231.593 100.371 231.593 100.477C231.593 100.584 231.572 100.69 231.532 100.788C231.491 100.887 231.431 100.976 231.356 101.052C231.28 101.127 231.191 101.187 231.092 101.228C230.994 101.269 230.888 101.29 230.782 101.29Z" fill="#44AECF"/>
<path d="M217.792 93.708H210.757C210.254 93.708 209.772 93.9077 209.417 94.2632C209.062 94.6186 208.862 95.1007 208.862 95.6034C208.862 96.1061 209.062 96.5881 209.417 96.9436C209.772 97.299 210.254 97.4987 210.757 97.4987H217.792C218.295 97.4987 218.777 97.299 219.132 96.9436C219.487 96.5881 219.687 96.1061 219.687 95.6034C219.687 95.1007 219.487 94.6186 219.132 94.2632C218.777 93.9077 218.295 93.708 217.792 93.708ZM217.792 96.4157H210.757C210.65 96.4159 210.544 96.3952 210.445 96.3545C210.346 96.3138 210.257 96.254 210.181 96.1785C210.105 96.1031 210.045 96.0134 210.005 95.9147C209.964 95.816 209.943 95.7102 209.943 95.6034C209.943 95.4965 209.964 95.3907 210.005 95.292C210.045 95.1933 210.105 95.1037 210.181 95.0282C210.257 94.9528 210.346 94.893 210.445 94.8523C210.544 94.8116 210.65 94.7908 210.757 94.7911H217.792C218.007 94.7917 218.213 94.8775 218.365 95.0297C218.517 95.182 218.602 95.3883 218.602 95.6034C218.602 95.8184 218.517 96.0247 218.365 96.177C218.213 96.3293 218.007 96.4151 217.792 96.4157Z" fill="#44AECF"/>
<path d="M230.782 93.708H223.746C223.243 93.708 222.762 93.9077 222.406 94.2632C222.051 94.6186 221.852 95.1007 221.852 95.6034C221.852 96.1061 222.051 96.5881 222.406 96.9436C222.762 97.299 223.243 97.4987 223.746 97.4987H230.782C231.284 97.4987 231.766 97.299 232.121 96.9436C232.476 96.5881 232.676 96.1061 232.676 95.6034C232.676 95.1007 232.476 94.6186 232.121 94.2632C231.766 93.9077 231.284 93.708 230.782 93.708ZM230.782 96.4157H223.746C223.639 96.4159 223.533 96.3952 223.434 96.3545C223.336 96.3138 223.246 96.254 223.17 96.1785C223.095 96.1031 223.035 96.0134 222.994 95.9147C222.953 95.816 222.932 95.7102 222.932 95.6034C222.932 95.4965 222.953 95.3907 222.994 95.292C223.035 95.1933 223.095 95.1037 223.17 95.0282C223.246 94.9528 223.336 94.893 223.434 94.8523C223.533 94.8116 223.639 94.7908 223.746 94.7911H230.782C230.997 94.7917 231.202 94.8775 231.354 95.0297C231.506 95.182 231.591 95.3883 231.591 95.6034C231.591 95.8184 231.506 96.0247 231.354 96.177C231.202 96.3293 230.997 96.4151 230.782 96.4157Z" fill="#44AECF"/>
<path d="M69.9593 83.053C69.9593 83.053 62.2703 115.537 71.668 115.537C81.0656 115.537 103.278 78.7789 103.278 78.7789C103.278 78.7789 126.345 66.8112 116.948 62.5371C107.55 58.2629 95.5893 69.3757 95.5893 69.3757L81.7884 88.5476L81.0656 78.7789L69.9593 83.053Z" fill="#A0616A"/>
<path d="M87.9004 55.6993L82.7743 50.5703C82.7743 50.5703 72.5223 56.5541 71.668 62.538C70.8136 68.5218 66.542 87.328 66.542 87.328L82.3472 88.6103L87.4732 80.9168L87.9004 55.6993Z" fill="#CFCCE0"/>
<path d="M330.73 43.5387C330.086 41.6372 322.015 35.1734 326.961 34.087L331.017 39.498L349.663 20.8408L351.539 22.7173L330.73 43.5387Z" fill="#FFD037"/>
<path d="M330.73 106.981C330.086 105.08 322.015 98.6158 326.961 97.5293L331.017 102.94L349.663 84.2832L351.539 86.1597L330.73 106.981Z" fill="#FFD037"/>
<path d="M330.73 171.33C330.086 169.428 322.015 162.964 326.961 161.878L331.017 167.289L349.663 148.632L351.539 150.508L330.73 171.33Z" fill="#FFD037"/>
<path d="M387.21 41.5811C390.388 41.5811 392.964 39.0034 392.964 35.8237C392.964 32.6441 390.388 30.0664 387.21 30.0664C384.032 30.0664 381.456 32.6441 381.456 35.8237C381.456 39.0034 384.032 41.5811 387.21 41.5811Z" fill="#3F3D56"/>
<path d="M501.426 35.248H408.787V36.3995H501.426V35.248Z" fill="#3F3D56"/>
<path d="M387.21 105.023C390.388 105.023 392.964 102.446 392.964 99.2661C392.964 96.0864 390.388 93.5088 387.21 93.5088C384.032 93.5088 381.456 96.0864 381.456 99.2661C381.456 102.446 384.032 105.023 387.21 105.023Z" fill="#3F3D56"/>
<path d="M501.426 98.6904H408.787V99.8419H501.426V98.6904Z" fill="#3F3D56"/>
<path d="M387.21 169.372C390.388 169.372 392.964 166.794 392.964 163.615C392.964 160.435 390.388 157.857 387.21 157.857C384.032 157.857 381.456 160.435 381.456 163.615C381.456 166.794 384.032 169.372 387.21 169.372Z" fill="#3F3D56"/>
<path d="M501.426 163.039H408.787V164.191H501.426V163.039Z" fill="#3F3D56"/>
<path d="M345.262 179.908H316.492V150.546H336.056V151.697H317.643V178.757H344.111V165.515H345.262V179.908Z" fill="#3F3D56"/>
<path d="M345.262 115.426H316.492V86.0635H336.056V87.2149H317.643V114.274H344.111V101.033H345.262V115.426Z" fill="#3F3D56"/>
<path d="M345.262 49.7921H316.492V20.4297H336.056V21.5812H317.643V48.6406H344.111V35.3988H345.262V49.7921Z" fill="#3F3D56"/>
<path d="M107.841 48.9814H133.557V64.3399L107.841 60.6041V48.9814Z" fill="#44AECF"/>
</svg>
