<svg width="589" height="319" viewBox="0 0 589 319" fill="none" xmlns="http://www.w3.org/2000/svg">
<g clip-path="url(#clip0)">
<path d="M319.622 168.749V169.442C319.621 175.804 317.093 181.905 312.594 186.403C308.096 190.901 301.995 193.428 295.635 193.427H24.8931C18.5336 193.426 12.4348 190.899 7.938 186.401C3.44121 181.903 0.914668 175.803 0.914062 169.442V168.749H319.622Z" fill="#F2F2F2"/>
<path d="M57.5397 54.5718C37.9744 59.4053 20.4105 44.3491 17.3438 30.3814L18.706 30.1378C35.1968 26.4917 53.6054 38.2824 57.5397 54.5718Z" fill="#FFD037"/>
<path d="M511.766 227.631C511.123 227.632 510.5 227.4 510.014 226.979C498.856 219.712 488.925 210.718 480.592 200.331C480.083 199.847 479.782 199.183 479.756 198.481C479.729 197.778 479.979 197.093 480.45 196.572L485.927 190.522L487.055 191.545L481.578 197.594C481.37 197.824 481.262 198.127 481.277 198.437C481.293 198.747 481.43 199.037 481.66 199.246L481.74 199.33C489.99 209.623 499.829 218.535 510.885 225.729L510.984 225.806C511.214 226.014 511.517 226.122 511.827 226.107C512.136 226.091 512.427 225.954 512.635 225.724L523.322 213.92C523.521 213.7 523.629 213.413 523.624 213.117C523.619 212.821 523.503 212.538 523.297 212.324C520.821 210.975 518.405 209.503 516.114 207.95L516.968 206.69C519.246 208.234 521.65 209.696 524.114 211.035L524.261 211.14C524.523 211.377 524.736 211.664 524.887 211.983C525.039 212.303 525.125 212.649 525.143 213.002C525.16 213.355 525.108 213.708 524.989 214.041C524.87 214.374 524.687 214.68 524.45 214.942L513.763 226.746C513.527 227.009 513.241 227.222 512.921 227.373C512.602 227.524 512.255 227.611 511.902 227.627C511.857 227.629 511.811 227.631 511.766 227.631Z" fill="#3F3D56"/>
<path d="M499.986 207.758C503.342 210.796 506.79 212.463 507.688 211.473C507.805 211.305 507.878 211.111 507.902 210.908C507.926 210.705 507.899 210.499 507.824 210.308C507.46 209.188 506.879 208.151 506.112 207.256C503.129 205.132 500.23 202.841 497.414 200.383C496.531 200.093 495.854 200.101 495.527 200.466C495.48 200.519 495.442 200.578 495.413 200.641C494.849 201.791 496.805 204.874 499.986 207.758Z" fill="#FFD037"/>
<path d="M479.759 183.287C479.788 183.98 480.089 184.634 480.597 185.106C485.105 190.679 490.061 195.874 495.413 200.642C499.331 204.137 503.477 207.367 507.825 210.309C508.548 210.804 509.279 211.283 510.017 211.755C510.501 212.179 511.124 212.412 511.767 212.41C511.813 212.41 511.859 212.402 511.904 212.402C512.258 212.386 512.605 212.299 512.925 212.148C513.245 211.996 513.532 211.782 513.769 211.519L524.453 199.721C524.932 199.191 525.181 198.492 525.146 197.778C525.11 197.065 524.792 196.394 524.263 195.915L524.118 195.808C512.453 189.506 502.483 180.479 495.056 169.494L494.942 169.357C494.412 168.878 493.713 168.629 493 168.664C492.286 168.7 491.616 169.018 491.136 169.547L480.452 181.346C480.214 181.608 480.031 181.914 479.912 182.247C479.793 182.58 479.741 182.934 479.759 183.287ZM481.281 183.211C481.273 183.058 481.295 182.906 481.346 182.762C481.397 182.619 481.476 182.486 481.578 182.373L492.263 170.567C492.366 170.453 492.492 170.36 492.631 170.295C492.771 170.23 492.923 170.193 493.077 170.187C493.357 170.17 493.633 170.257 493.853 170.43C501.39 181.551 511.488 190.698 523.296 197.102C523.502 197.314 523.619 197.596 523.625 197.892C523.631 198.187 523.524 198.473 523.327 198.693L512.635 210.499C512.533 210.614 512.409 210.707 512.271 210.773C512.132 210.838 511.981 210.874 511.828 210.88C511.519 210.895 511.216 210.788 510.983 210.583L510.884 210.507C509.271 209.472 507.681 208.388 506.113 207.256C503.13 205.133 500.23 202.842 497.415 200.383C491.728 195.422 486.483 189.977 481.738 184.109L481.662 184.025C481.434 183.814 481.297 183.521 481.281 183.211V183.211Z" fill="#3F3D56"/>
<path d="M507.686 196.252C508.58 195.264 506.584 191.998 503.226 188.957C499.868 185.916 496.422 184.251 495.527 185.239C494.633 186.227 496.63 189.493 499.988 192.534C503.345 195.575 506.792 197.239 507.686 196.252Z" fill="#FFD037"/>
<path d="M440.547 309.459L431.218 309.459L426.779 273.464L440.549 273.465L440.547 309.459Z" fill="#FFB8B8"/>
<path d="M442.927 318.506L412.844 318.504V318.124C412.844 316.586 413.147 315.063 413.735 313.642C414.323 312.221 415.186 310.93 416.273 309.842C417.361 308.755 418.651 307.892 420.072 307.304C421.493 306.715 423.015 306.412 424.553 306.412H424.554L442.927 306.413L442.927 318.506Z" fill="#2F2E41"/>
<path d="M467.944 309.459L458.615 309.459L454.176 273.464L467.945 273.465L467.944 309.459Z" fill="#FFB8B8"/>
<path d="M470.323 318.506L440.24 318.504V318.124C440.24 316.586 440.543 315.063 441.131 313.642C441.72 312.221 442.582 310.93 443.67 309.842C444.757 308.755 446.048 307.892 447.468 307.304C448.889 306.715 450.412 306.412 451.949 306.412H451.95L470.324 306.413L470.323 318.506Z" fill="#2F2E41"/>
<path d="M474.205 163.991L471.977 296.204C471.97 296.623 471.877 297.035 471.703 297.416C471.529 297.797 471.279 298.138 470.967 298.418C470.656 298.698 470.29 298.91 469.892 299.042C469.495 299.174 469.075 299.223 468.658 299.185L457.74 298.192C457.024 298.127 456.354 297.81 455.849 297.298C455.344 296.786 455.037 296.112 454.981 295.395L448.589 212.924C448.574 212.731 448.486 212.55 448.342 212.42C448.198 212.289 448.01 212.218 447.816 212.222C447.622 212.226 447.436 212.304 447.298 212.44C447.159 212.576 447.078 212.76 447.07 212.955L443.876 297.313C443.846 298.1 443.512 298.845 442.945 299.391C442.378 299.938 441.621 300.243 440.834 300.243H429.125C428.35 300.243 427.604 299.947 427.04 299.416C426.475 298.884 426.134 298.158 426.087 297.384L417.891 163.23L466.595 151.051L474.205 163.991Z" fill="#2F2E41"/>
<path d="M438.879 39.845C449.201 39.845 457.57 31.4748 457.57 21.1495C457.57 10.8243 449.201 2.4541 438.879 2.4541C428.556 2.4541 420.188 10.8243 420.188 21.1495C420.188 31.4748 428.556 39.845 438.879 39.845Z" fill="#FFB8B8"/>
<path d="M416.222 167.924C415.898 167.611 415.64 167.237 415.461 166.823C415.283 166.41 415.189 165.965 415.184 165.515L413.923 75.3581C413.847 70.7719 415.226 66.2797 417.863 62.5268C420.499 58.7738 424.257 55.9532 428.597 54.4702C430.348 46.5239 439.668 45.5285 445.101 45.6475C446.457 45.6766 447.786 46.0325 448.975 46.6848C450.164 47.3371 451.179 48.2667 451.933 49.3946L455.827 55.2381L464.412 60.2712C468.384 62.5906 471.518 66.1122 473.36 70.3281C475.203 74.544 475.659 79.2363 474.662 83.7282L473.341 89.7411C468.687 111.023 469.13 133.105 474.633 154.183L477.292 164.325C477.431 164.853 477.441 165.407 477.322 165.94C477.203 166.473 476.959 166.97 476.609 167.389C476.259 167.808 475.814 168.138 475.311 168.35C474.808 168.562 474.262 168.651 473.717 168.609L470.629 168.371C469.827 168.31 469.072 167.969 468.497 167.407C467.922 166.845 467.563 166.098 467.484 165.297L466.973 160.185C466.963 160.091 466.919 160.004 466.849 159.94C466.779 159.877 466.688 159.842 466.594 159.842C466.5 159.842 466.409 159.877 466.339 159.94C466.269 160.004 466.225 160.091 466.215 160.185L465.721 165.135C465.637 165.971 465.249 166.747 464.63 167.316C464.012 167.885 463.206 168.206 462.366 168.219L418.661 168.892C418.642 168.892 418.624 168.892 418.606 168.892C417.715 168.894 416.859 168.546 416.222 167.924Z" fill="#3F3D56"/>
<path d="M440.34 31.9257C440.416 34.5685 442.251 36.0975 444.503 37.4817C446.755 38.866 449.388 39.4662 451.967 40.0452C452.313 40.2292 452.701 40.3209 453.093 40.3112C453.485 40.3016 453.868 40.1911 454.205 39.9903C454.542 39.7895 454.822 39.5052 455.017 39.1649C455.212 38.8246 455.316 38.4397 455.319 38.0474L457.685 29.0478C458.521 26.1729 459.13 23.2366 459.506 20.266C460.075 14.5502 458.721 8.4014 454.733 4.26872C450.744 0.136041 443.827 -1.33203 439.047 1.85213C433.375 -5.39417 407.448 10.6156 413.843 15.6545C414.981 16.5509 416.72 15.4166 418.165 15.3067C419.609 15.1968 421.227 15.4509 422.145 16.5719C423.343 18.0366 422.821 20.2184 423.315 22.0455C423.519 22.6884 423.849 23.2845 424.285 23.7994C424.72 24.3142 425.254 24.7377 425.854 25.0454C426.454 25.3531 427.109 25.5389 427.782 25.5921C428.454 25.6453 429.13 25.5649 429.771 25.3554C430.965 24.7669 432.089 24.0446 433.12 23.2023C434.227 22.4643 435.627 21.919 436.874 22.3844C438.518 22.998 439.102 25.0108 439.25 26.7594C439.501 28.5034 439.865 30.2291 440.34 31.9257Z" fill="#2F2E41"/>
<path opacity="0.2" d="M435.974 82.0312L432.93 119.329L416.949 158.15L440.54 120.09L435.974 82.0312Z" fill="black"/>
<path d="M413.214 172.606C414.086 171.906 414.794 171.022 415.288 170.018C415.782 169.015 416.051 167.914 416.074 166.796C416.097 165.677 415.874 164.567 415.422 163.543C414.969 162.52 414.298 161.608 413.456 160.872L423.637 135.649L409.785 138.447L402.24 161.97C401.098 163.468 400.545 165.333 400.686 167.212C400.826 169.091 401.651 170.853 403.004 172.164C404.356 173.475 406.143 174.244 408.025 174.325C409.906 174.407 411.753 173.795 413.214 172.606V172.606Z" fill="#FFB8B8"/>
<path d="M412.472 161.482L404.631 158.655C403.823 158.36 403.155 157.772 402.759 157.009C402.362 156.245 402.266 155.361 402.488 154.53L415.423 107.17L417.396 64.3666C417.455 63.0746 417.771 61.8074 418.324 60.6385C418.878 59.4697 419.658 58.4225 420.619 57.558C421.581 56.6934 422.705 56.0287 423.926 55.6026C425.147 55.1764 426.44 54.9972 427.731 55.0755C429.021 55.1538 430.284 55.4879 431.444 56.0585C432.604 56.629 433.64 57.4246 434.49 58.3991C435.34 59.3735 435.988 60.5072 436.397 61.7344C436.805 62.9616 436.965 64.2577 436.868 65.5474L433.346 112.416L416.864 159.395C416.614 160.105 416.138 160.713 415.509 161.125C414.88 161.538 414.132 161.732 413.382 161.678C413.071 161.654 412.765 161.588 412.472 161.482Z" fill="#3F3D56"/>
<path d="M493.279 175.08C493.814 174.097 494.128 173.009 494.197 171.892C494.266 170.775 494.09 169.657 493.68 168.615C493.27 167.574 492.637 166.635 491.826 165.865C491.014 165.095 490.043 164.512 488.982 164.158L488.662 136.959L476.957 144.879L479.056 169.493C478.579 171.316 478.787 173.25 479.64 174.93C480.494 176.609 481.934 177.917 483.687 178.606C485.44 179.294 487.385 179.316 489.153 178.666C490.921 178.016 492.389 176.74 493.279 175.08L493.279 175.08Z" fill="#FFB8B8"/>
<path d="M488.31 165.1L479.985 165.514C479.126 165.552 478.283 165.268 477.623 164.716C476.963 164.164 476.534 163.385 476.419 162.533L470.113 113.844L455.445 73.585C455.002 72.3699 454.806 71.0788 454.866 69.787C454.927 68.4951 455.243 67.2281 455.798 66.0597C456.352 64.8914 457.133 63.8449 458.096 62.9812C459.058 62.1175 460.183 61.4538 461.404 61.0286C462.625 60.6035 463.918 60.4254 465.209 60.5047C466.5 60.584 467.761 60.9192 468.921 61.4906C470.081 62.0621 471.116 62.8586 471.965 63.8336C472.815 64.8087 473.462 65.9429 473.869 67.1704L488.672 111.778L491.559 161.482C491.602 162.233 491.397 162.977 490.975 163.601C490.553 164.224 489.938 164.691 489.225 164.93C488.929 165.028 488.621 165.086 488.31 165.1Z" fill="#3F3D56"/>
<path d="M588.24 318.892H298.298C298.096 318.892 297.903 318.811 297.76 318.669C297.617 318.526 297.537 318.332 297.537 318.13C297.537 317.928 297.617 317.735 297.76 317.592C297.903 317.449 298.096 317.369 298.298 317.369H588.24C588.442 317.369 588.635 317.449 588.778 317.592C588.921 317.735 589.001 317.928 589.001 318.13C589.001 318.332 588.921 318.526 588.778 318.669C588.635 318.811 588.442 318.892 588.24 318.892Z" fill="#3F3D56"/>
<path d="M245.971 154.553C241.6 154.553 238.124 153.253 235.639 150.688C230.021 144.892 230.373 133.719 230.656 124.741C230.738 122.129 230.816 119.662 230.737 117.596L230.737 117.564C230.757 113.527 232.369 109.66 235.222 106.804C238.076 103.949 241.941 102.334 245.977 102.312H282.213C286.578 102.312 290.05 103.611 292.534 106.172C298.152 111.964 297.804 123.134 297.524 132.109C297.443 134.727 297.365 137.199 297.446 139.269C297.431 143.313 295.821 147.187 292.966 150.049C290.11 152.912 286.24 154.53 282.198 154.553H245.971ZM232.259 117.554C232.338 119.67 232.26 122.156 232.177 124.789C231.903 133.479 231.563 144.295 236.732 149.628C238.95 151.918 241.972 153.03 245.971 153.03H282.196C285.831 153.011 289.312 151.558 291.883 148.986C294.453 146.415 295.905 142.933 295.924 139.296C295.843 137.205 295.92 134.707 296.003 132.062C296.273 123.374 296.61 112.561 291.442 107.232C289.225 104.946 286.206 103.835 282.213 103.835H245.98C242.348 103.855 238.87 105.307 236.302 107.875C233.733 110.443 232.281 113.921 232.259 117.554Z" fill="#3F3D56"/>
<path d="M49.5334 55.9725C43.1795 55.934 36.964 54.1131 31.5935 50.7167C23.7257 45.8267 17.785 37.9948 16.0898 30.2785L15.9199 29.5051L18.0461 29.1245C34.783 25.4297 53.7134 37.3362 57.7688 54.119L57.9466 54.8549L57.2118 55.0367C54.6997 55.6585 52.1213 55.9728 49.5334 55.9725ZM17.7605 30.7223C19.5867 37.8008 25.1293 44.9064 32.3968 49.4237C39.4236 53.9218 47.9389 55.4703 56.0989 53.734C51.8559 38.0981 34.0888 27.126 18.3599 30.6146L17.7605 30.7223Z" fill="#3F3D56"/>
<path d="M28.4225 142.474C23.4436 142.474 19.3986 140.246 17.0238 136.18C15.6927 133.815 14.993 131.147 14.9922 128.433C14.9913 125.719 15.6893 123.05 17.0189 120.684C19.4317 116.549 23.5732 114.306 28.6879 114.385H76.9688C82.0662 114.32 86.2108 116.553 88.625 120.692C89.9547 123.058 90.6531 125.726 90.6529 128.44C90.6526 131.153 89.9538 133.821 88.6236 136.186C86.2104 140.316 82.067 142.522 76.9573 142.472H28.6756C28.591 142.474 28.5066 142.474 28.4225 142.474ZM28.4508 115.905C24.0105 115.905 20.4238 117.869 18.3334 121.452C17.1356 123.583 16.5068 125.987 16.5076 128.433C16.5084 130.878 17.1388 133.281 18.338 135.412C20.4636 139.052 24.1238 141.021 28.6642 140.95H76.9688C81.5139 141.022 85.1854 139.053 87.3096 135.418C88.5078 133.287 89.1373 130.884 89.1375 128.439C89.1376 125.994 88.5084 123.591 87.3104 121.46C85.1849 117.815 81.5126 115.853 76.9796 115.907H28.672C28.5982 115.906 28.5241 115.905 28.4508 115.905H28.4508Z" fill="#3F3D56"/>
<path d="M258.361 120.414H243.141C242.132 120.414 241.164 120.013 240.45 119.299C239.737 118.585 239.336 117.617 239.336 116.608C239.336 115.598 239.737 114.63 240.45 113.916C241.164 113.203 242.132 112.802 243.141 112.802H258.361C259.37 112.802 260.338 113.203 261.052 113.916C261.765 114.63 262.166 115.598 262.166 116.608C262.166 117.617 261.765 118.585 261.052 119.299C260.338 120.013 259.37 120.414 258.361 120.414Z" fill="#30A6CA"/>
<path d="M258.361 132.593H243.141C242.132 132.593 241.164 132.192 240.45 131.479C239.737 130.765 239.336 129.797 239.336 128.787C239.336 127.778 239.737 126.81 240.45 126.096C241.164 125.382 242.132 124.981 243.141 124.981H258.361C259.37 124.981 260.338 125.382 261.052 126.096C261.765 126.81 262.166 127.778 262.166 128.787C262.166 129.797 261.765 130.765 261.052 131.479C260.338 132.192 259.37 132.593 258.361 132.593Z" fill="#30A6CA"/>
<path d="M258.361 144.772H243.141C242.132 144.772 241.164 144.371 240.45 143.657C239.737 142.944 239.336 141.975 239.336 140.966C239.336 139.957 239.737 138.989 240.45 138.275C241.164 137.561 242.132 137.16 243.141 137.16H258.361C259.37 137.16 260.338 137.561 261.052 138.275C261.765 138.989 262.166 139.957 262.166 140.966C262.166 141.975 261.765 142.944 261.052 143.657C260.338 144.371 259.37 144.772 258.361 144.772Z" fill="#30A6CA"/>
<path d="M284.996 120.414H269.776C268.767 120.414 267.799 120.013 267.085 119.299C266.372 118.585 265.971 117.617 265.971 116.608C265.971 115.598 266.372 114.63 267.085 113.916C267.799 113.203 268.767 112.802 269.776 112.802H284.996C286.005 112.802 286.973 113.203 287.686 113.916C288.4 114.63 288.801 115.598 288.801 116.608C288.801 117.617 288.4 118.585 287.686 119.299C286.973 120.013 286.005 120.414 284.996 120.414Z" fill="#30A6CA"/>
<path d="M284.996 132.593H269.776C268.767 132.593 267.799 132.192 267.085 131.479C266.372 130.765 265.971 129.797 265.971 128.787C265.971 127.778 266.372 126.81 267.085 126.096C267.799 125.382 268.767 124.981 269.776 124.981H284.996C286.005 124.981 286.973 125.382 287.686 126.096C288.4 126.81 288.801 127.778 288.801 128.787C288.801 129.797 288.4 130.765 287.686 131.479C286.973 132.192 286.005 132.593 284.996 132.593Z" fill="#30A6CA"/>
<path d="M284.996 144.772H269.776C268.767 144.772 267.799 144.371 267.085 143.657C266.372 142.944 265.971 141.975 265.971 140.966C265.971 139.957 266.372 138.989 267.085 138.275C267.799 137.561 268.767 137.16 269.776 137.16H284.996C286.005 137.16 286.973 137.561 287.686 138.275C288.4 138.989 288.801 139.957 288.801 140.966C288.801 141.975 288.4 142.944 287.686 143.657C286.973 144.371 286.005 144.772 284.996 144.772Z" fill="#30A6CA"/>
<path d="M319.622 66.3252H0.914062V67.8476H319.622V66.3252Z" fill="#3F3D56"/>
<path d="M294.508 193.868H25.1131C18.455 193.86 12.0717 191.211 7.36375 186.502C2.65577 181.793 0.00752097 175.408 0 168.749V37.8251C0.00752097 31.1654 2.65577 24.7807 7.36375 20.0716C12.0717 15.3625 18.455 12.7136 25.1131 12.7061H294.508C301.166 12.7136 307.549 15.3625 312.257 20.0716C316.965 24.7807 319.613 31.1654 319.621 37.8251V168.749C319.613 175.408 316.965 181.793 312.257 186.502C307.549 191.211 301.166 193.86 294.508 193.868ZM25.1131 14.2284C18.8585 14.2355 12.8622 16.7239 8.43951 21.1476C4.01687 25.5713 1.52911 31.5691 1.522 37.8251V168.749C1.52911 175.005 4.01688 181.002 8.43952 185.426C12.8622 189.85 18.8585 192.338 25.1131 192.345H294.508C300.762 192.338 306.759 189.85 311.181 185.426C315.604 181.003 318.092 175.005 318.099 168.749V37.8251C318.092 31.5691 315.604 25.5713 311.181 21.1476C306.759 16.7239 300.762 14.2355 294.508 14.2284H25.1131Z" fill="#3F3D56"/>
</g>
<defs>
<clipPath id="clip0">
<rect width="589" height="319" fill="white"/>
</clipPath>
</defs>
</svg>
