<svg width="24" height="24" viewBox="0 0 24 24" fill="none" xmlns="http://www.w3.org/2000/svg">
<g clip-path="url(#clip0)">
<path d="M22.9874 13.966C24.3444 6.201 17.5714 -0.446 9.9354 0.987C4.1144 -2.574 -2.5676 4.213 1.0004 10.016C-0.386598 17.763 6.3844 24.496 14.0834 23.026C19.9154 26.562 26.5764 19.766 22.9874 13.966ZM12.3844 19.857C9.2034 19.857 6.0064 18.409 6.0224 15.916C6.0274 15.164 6.5864 14.474 7.3314 14.474C9.2044 14.474 9.1864 17.269 12.1684 17.269C14.2614 17.269 14.9754 16.123 14.9754 15.325C14.9754 12.439 5.9324 14.208 5.9324 8.782C5.9324 5.844 8.3344 3.82 12.1114 4.041C15.7134 4.254 17.8244 5.844 18.0284 7.33C18.1294 8.301 17.4864 9.057 16.3694 9.057C14.7414 9.057 14.5744 6.876 11.7694 6.876C10.5034 6.876 9.4354 7.404 9.4354 8.55C9.4354 10.945 18.4254 9.555 18.4254 14.826C18.4244 17.865 16.0024 19.857 12.3844 19.857Z" fill="#FFD037"/>
</g>
<defs>
<clipPath id="clip0">
<rect width="24" height="24" fill="white"/>
</clipPath>
</defs>
</svg>
