<svg width="148" height="34" viewBox="0 0 148 34" fill="none" xmlns="http://www.w3.org/2000/svg">
<path d="M87.2589 0.409573V15.3383C87.2589 17.6255 86.6304 19.3873 85.3735 20.6236C84.1371 21.86 82.4166 22.4781 80.2118 22.4781C77.8215 22.4781 75.9258 21.8085 74.5246 20.4691C73.1234 19.1091 72.4229 17.1619 72.4229 14.6274H77.6464C77.6464 16.6674 78.4191 17.6873 79.9645 17.6873C81.3039 17.6873 81.9735 16.9043 81.9735 15.3383V0.409573H87.2589Z" fill="#FFD037"/>
<path d="M95.877 0.409573V13.0202C95.877 14.4626 96.1964 15.565 96.8351 16.3274C97.4945 17.0898 98.4424 17.471 99.6787 17.471C100.915 17.471 101.853 17.0898 102.491 16.3274C103.151 15.565 103.48 14.4626 103.48 13.0202V0.409573H108.766V13.0202C108.766 15.0807 108.364 16.8219 107.56 18.2437C106.757 19.6449 105.654 20.7061 104.253 21.4273C102.873 22.1278 101.307 22.4781 99.5551 22.4781C97.8036 22.4781 96.2582 22.1278 94.9188 21.4273C93.5795 20.7267 92.5286 19.6655 91.7662 18.2437C91.0038 16.8219 90.6226 15.0807 90.6226 13.0202V0.409573H95.877Z" fill="#FFD037"/>
<path d="M127.999 16.111C127.999 17.2649 127.7 18.3261 127.103 19.2946C126.526 20.263 125.66 21.0358 124.506 21.6127C123.373 22.1897 121.992 22.4781 120.365 22.4781C117.913 22.4781 115.893 21.8806 114.307 20.6855C112.72 19.4903 111.855 17.8213 111.71 15.6783H117.336C117.418 16.5025 117.706 17.1516 118.201 17.6255C118.716 18.0995 119.365 18.3364 120.148 18.3364C120.828 18.3364 121.364 18.151 121.755 17.7801C122.147 17.4092 122.343 16.9146 122.343 16.2965C122.343 15.7401 122.157 15.2765 121.786 14.9056C121.436 14.5347 120.993 14.2359 120.457 14.0093C119.922 13.762 119.18 13.4735 118.232 13.1438C116.851 12.6699 115.718 12.2166 114.832 11.7839C113.967 11.3305 113.214 10.6711 112.576 9.80572C111.958 8.91968 111.648 7.77607 111.648 6.37489C111.648 5.07674 111.978 3.95373 112.638 3.00588C113.297 2.05802 114.204 1.33682 115.357 0.84229C116.532 0.32715 117.871 0.0695801 119.376 0.0695801C121.807 0.0695801 123.734 0.646536 125.155 1.80045C126.598 2.95436 127.412 4.54099 127.597 6.56034H121.879C121.776 5.83914 121.508 5.27249 121.076 4.86038C120.663 4.42766 120.097 4.2113 119.376 4.2113C118.757 4.2113 118.253 4.37615 117.861 4.70584C117.49 5.03552 117.305 5.51975 117.305 6.15853C117.305 6.67367 117.47 7.11669 117.799 7.48759C118.15 7.83788 118.582 8.12636 119.097 8.35302C119.613 8.57968 120.354 8.86816 121.323 9.21845C122.724 9.69238 123.868 10.1663 124.754 10.6402C125.64 11.0936 126.402 11.7632 127.041 12.6493C127.68 13.5353 127.999 14.6892 127.999 16.111Z" fill="#FFD037"/>
<path d="M78.0564 31.709C78.0564 32.1089 77.9564 32.4791 77.7565 32.8198C77.5566 33.153 77.2604 33.4233 76.8679 33.6306C76.4754 33.8306 75.9978 33.9305 75.435 33.9305C74.8796 33.9305 74.3835 33.838 73.9466 33.6528C73.5097 33.4603 73.1579 33.1863 72.8913 32.8309C72.6321 32.4754 72.484 32.0607 72.447 31.5868H74.1132C74.1502 31.9052 74.2761 32.1718 74.4908 32.3866C74.713 32.5939 75.0055 32.6976 75.3683 32.6976C75.6942 32.6976 75.9422 32.6124 76.1126 32.4421C76.2903 32.2644 76.3791 32.0385 76.3791 31.7645C76.3791 31.5202 76.3088 31.3202 76.1681 31.1647C76.0274 31.0018 75.8497 30.8722 75.6349 30.7759C75.4202 30.6797 75.124 30.5686 74.7463 30.4427C74.2576 30.2798 73.8577 30.1206 73.5467 29.9651C73.2357 29.8022 72.9691 29.5689 72.7469 29.2653C72.5322 28.9617 72.4248 28.5655 72.4248 28.0768C72.4248 27.4029 72.6655 26.8734 73.1468 26.4884C73.6355 26.0959 74.2798 25.8997 75.0795 25.8997C75.9089 25.8997 76.568 26.0996 77.0567 26.4995C77.5529 26.8993 77.8343 27.4325 77.9009 28.099H76.2125C76.1681 27.8176 76.0496 27.588 75.8571 27.4103C75.6645 27.2252 75.4017 27.1326 75.0684 27.1326C74.7796 27.1326 74.5464 27.2104 74.3687 27.3659C74.1909 27.514 74.1021 27.7324 74.1021 28.0212C74.1021 28.2508 74.1687 28.4433 74.302 28.5988C74.4427 28.7469 74.6167 28.8691 74.8241 28.9654C75.0388 29.0616 75.3276 29.169 75.6905 29.2875C76.194 29.4652 76.6013 29.6318 76.9123 29.7873C77.2307 29.9429 77.501 30.1761 77.7232 30.4871C77.9453 30.7982 78.0564 31.2054 78.0564 31.709Z" fill="white"/>
<path d="M82.8868 25.8997C83.6199 25.8997 84.2826 26.07 84.8751 26.4106C85.4749 26.7512 85.9451 27.2289 86.2857 27.8435C86.6338 28.4507 86.8078 29.1394 86.8078 29.9095C86.8078 30.6797 86.6338 31.372 86.2857 31.9867C85.9451 32.6013 85.4749 33.0789 84.8751 33.4196C84.2826 33.7602 83.6199 33.9305 82.8868 33.9305C82.1537 33.9305 81.4872 33.7602 80.8874 33.4196C80.295 33.0789 79.8248 32.6013 79.4767 31.9867C79.1361 31.372 78.9658 30.6797 78.9658 29.9095C78.9658 29.1394 79.1361 28.4507 79.4767 27.8435C79.8248 27.2289 80.295 26.7512 80.8874 26.4106C81.4872 26.07 82.1537 25.8997 82.8868 25.8997ZM82.8868 27.3437C82.4277 27.3437 82.0241 27.4473 81.676 27.6547C81.328 27.862 81.054 28.1619 80.8541 28.5544C80.6615 28.9395 80.5653 29.3912 80.5653 29.9095C80.5653 30.4279 80.6615 30.8833 80.8541 31.2758C81.054 31.6608 81.328 31.9571 81.676 32.1644C82.0241 32.3717 82.4277 32.4754 82.8868 32.4754C83.3459 32.4754 83.7495 32.3717 84.0975 32.1644C84.4456 31.9571 84.7158 31.6608 84.9084 31.2758C85.1083 30.8833 85.2083 30.4279 85.2083 29.9095C85.2083 29.3912 85.1083 28.9395 84.9084 28.5544C84.7158 28.1619 84.4456 27.862 84.0975 27.6547C83.7495 27.4473 83.3459 27.3437 82.8868 27.3437Z" fill="white"/>
<path d="M91.529 25.933C92.5065 25.933 93.3173 26.1848 93.9616 26.6883C94.6058 27.1919 95.0316 27.8768 95.239 28.7432H93.595C93.4247 28.3211 93.1581 27.9879 92.7953 27.7435C92.4398 27.4992 92.0103 27.377 91.5068 27.377C91.0921 27.377 90.7181 27.4807 90.3849 27.688C90.0517 27.8953 89.7925 28.1915 89.6074 28.5766C89.4222 28.9617 89.3297 29.4134 89.3297 29.9318C89.3297 30.4427 89.4222 30.8907 89.6074 31.2758C89.7925 31.6608 90.0517 31.9571 90.3849 32.1644C90.7181 32.3717 91.0921 32.4754 91.5068 32.4754C92.0103 32.4754 92.4398 32.3532 92.7953 32.1089C93.1581 31.8645 93.4247 31.5313 93.595 31.1092H95.239C95.0316 31.9756 94.6058 32.6605 93.9616 33.1641C93.3173 33.6676 92.5065 33.9194 91.529 33.9194C90.7811 33.9194 90.1183 33.7528 89.5407 33.4196C88.9705 33.0789 88.5262 32.605 88.2078 31.9978C87.8968 31.3906 87.7413 30.7019 87.7413 29.9318C87.7413 29.1542 87.8968 28.4618 88.2078 27.8546C88.5262 27.2474 88.9705 26.7772 89.5407 26.4439C90.1109 26.1033 90.7737 25.933 91.529 25.933Z" fill="white"/>
<path d="M97.9802 26.0107V33.8528H96.414V26.0107H97.9802Z" fill="white"/>
<path d="M104.173 32.2755H101.03L100.475 33.8528H98.8195L101.707 26.0996H103.496L106.373 33.8528H104.718L104.173 32.2755ZM103.751 31.0869L102.596 27.7769L101.441 31.0869H103.751Z" fill="white"/>
<path d="M108.784 32.6531H111.417V33.8528H107.218V26.0107H108.784V32.6531Z" fill="white"/>
<path d="M116.334 30.9426V33.8528H114.768V26.0107H117.622C118.548 26.0107 119.244 26.2329 119.711 26.6772C120.185 27.1215 120.422 27.725 120.422 28.4878C120.422 29.2357 120.177 29.8318 119.688 30.2761C119.207 30.7204 118.518 30.9426 117.622 30.9426H116.334ZM117.456 29.6874C118.374 29.6874 118.833 29.2875 118.833 28.4878C118.833 28.0953 118.726 27.7954 118.511 27.588C118.296 27.3807 117.945 27.277 117.456 27.277H116.334V29.6874H117.456Z" fill="white"/>
<path d="M126.215 32.2755H123.072L122.516 33.8528H120.861L123.749 26.0996H125.538L128.415 33.8528H126.759L126.215 32.2755ZM125.793 31.0869L124.638 27.7769L123.483 31.0869H125.793Z" fill="white"/>
<path d="M135.902 33.8528H134.336L130.826 28.5211V33.8528H129.26V26.0107H130.826L134.336 31.3869V26.0107H135.902V33.8528Z" fill="white"/>
<path d="M138.886 27.2548V29.2875H141.663V30.4871H138.886V32.5976H141.996V33.8528H137.319V26.0107H141.996V27.2548H138.886Z" fill="white"/>
<path d="M144.721 32.6531H147.354V33.8528H143.155V26.0107H144.721V32.6531Z" fill="white"/>
<path d="M132 0.393066H142.972V4.73669H132V0.393066Z" fill="#FFD037"/>
<path d="M76.2852 0.406738H87.2573V4.75036H76.2852V0.406738Z" fill="#FFD037"/>
<path d="M131.998 0.410156V15.3389C131.998 17.6261 132.626 19.3879 133.883 20.6242C135.12 21.8606 136.84 22.4787 139.045 22.4787C141.435 22.4787 143.331 21.809 144.732 20.4697C146.133 19.1097 146.834 17.1625 146.834 14.628H141.61C141.61 16.668 140.838 17.6879 139.292 17.6879C137.953 17.6879 137.283 16.9049 137.283 15.3389V0.410156H131.998Z" fill="#FFD037"/>
<path d="M20.7839 9.45471V23.6142C20.7839 24.3845 20.5318 25.0288 20.0277 25.5609C19.5235 26.0792 18.8792 26.3453 18.0949 26.3453H0V33.8521H18.0949C19.5935 33.8521 20.952 33.6001 22.2125 33.0958C23.459 32.5776 24.5233 31.8633 25.4337 30.953C26.3301 30.0426 27.0304 28.9643 27.5345 27.7178C28.0387 26.4713 28.2908 25.0988 28.2908 23.6142V9.45471H20.7839ZM20.7839 0.365234V7.59206H28.2908V0.365234H20.7839Z" fill="#FFD037"/>
<path d="M62.7319 19.5114C62.2137 18.2509 61.4994 17.1724 60.5751 16.2481C59.6647 15.3377 58.5722 14.6095 57.3258 14.0913C56.0793 13.573 54.7348 13.3209 53.2642 13.3209H39.609C38.8106 13.3209 38.1664 13.0829 37.6762 12.5927C37.172 12.1165 36.92 11.4443 36.92 10.6179C36.92 9.79164 37.172 9.13334 37.6762 8.62917C38.1664 8.12499 38.8106 7.88684 39.609 7.88684H45.5612L38.1524 0.478027C37.242 0.576077 36.3877 0.814143 35.5614 1.15026C34.315 1.66845 33.2365 2.38274 32.3261 3.29312C31.4158 4.20342 30.7016 5.28186 30.1834 6.54238C30.0433 6.8785 29.9173 7.22863 29.8192 7.59278C29.5391 8.54514 29.4131 9.55348 29.4131 10.6179C29.4131 12.0885 29.6652 13.461 30.1693 14.7075C30.6875 15.968 31.3878 17.0604 32.2982 17.9707C33.1945 18.8951 34.2729 19.6093 35.5194 20.1276C36.7659 20.6458 38.1244 20.8979 39.609 20.8979H53.2642C54.1046 20.8979 54.7628 21.136 55.2529 21.6122C55.7292 22.0883 55.9813 22.7605 55.9813 23.6149C55.9813 24.4272 55.7292 25.0995 55.2529 25.5897C54.7628 26.0938 54.1046 26.346 53.2642 26.346H37.7183L30.2113 33.8529H53.2642C54.7348 33.8529 56.0793 33.6008 57.3258 33.0826C58.5722 32.5643 59.6647 31.8501 60.5751 30.9397C61.4994 30.0293 62.2137 28.937 62.7319 27.6905C63.2501 26.43 63.5162 25.0715 63.5162 23.6149C63.5162 22.1304 63.2501 20.7718 62.7319 19.5114Z" fill="white"/>
<path d="M40.6729 0.365479L48.1937 7.88636H62.7033V0.365479H40.6729Z" fill="#FFD037"/>
<path d="M40.8678 3.19459V7.5923H14.1455V0.365479H38.0387L40.8678 3.19459Z" fill="white"/>
</svg>
