<svg width="539" height="386" viewBox="0 0 539 386" fill="none" xmlns="http://www.w3.org/2000/svg">
<g clip-path="url(#clip0)">
<path d="M523.064 113.113H228.117C223.965 113.117 219.984 114.768 217.048 117.705C214.113 120.641 212.462 124.623 212.458 128.776V176.587C212.462 180.74 214.113 184.722 217.048 187.658C219.984 190.595 223.965 192.246 228.117 192.25H523.064C527.216 192.246 531.197 190.595 534.132 187.658C537.068 184.722 538.719 180.74 538.723 176.587V128.776C538.719 124.623 537.068 120.641 534.132 117.705C531.197 114.768 527.216 113.117 523.064 113.113Z" fill="#F2F2F2"/>
<path d="M118.282 386H0.938745C0.689774 386 0.450986 385.901 0.274937 385.725C0.0988882 385.549 0 385.31 0 385.061C0 384.812 0.0988882 384.573 0.274937 384.397C0.450986 384.221 0.689774 384.122 0.938745 384.122H118.282C118.531 384.122 118.77 384.221 118.946 384.397C119.122 384.573 119.221 384.812 119.221 385.061C119.221 385.31 119.122 385.549 118.946 385.725C118.77 385.901 118.531 386 118.282 386Z" fill="#3F3D56"/>
<path d="M101.052 91.9999C99.9642 92.687 99.0398 93.6044 98.3444 94.6874C97.649 95.7705 97.1994 96.9929 97.0274 98.2685C96.8554 99.5442 96.9651 100.842 97.3487 102.071C97.7324 103.299 98.3808 104.429 99.2481 105.38L90.7173 123.601L100.523 131.487L112.209 105.586C113.71 104.023 114.585 101.963 114.669 99.7975C114.752 97.632 114.039 95.5109 112.664 93.8362C111.289 92.1615 109.347 91.0496 107.207 90.7112C105.067 90.3727 102.877 90.8313 101.052 91.9999V91.9999Z" fill="#FFB8B8"/>
<path d="M52.0297 99.394C54.7295 97.7719 57.95 97.2514 61.0232 97.9405C64.0963 98.6296 66.7864 100.475 68.5356 103.095L85.9913 129.238L92.0514 115.875C92.4298 115.041 93.1001 114.374 93.9361 113.999C94.7722 113.625 95.7162 113.569 96.5906 113.842L105.737 116.7C106.215 116.849 106.658 117.092 107.041 117.416C107.423 117.739 107.737 118.135 107.964 118.581C108.191 119.028 108.327 119.515 108.363 120.014C108.399 120.514 108.335 121.015 108.174 121.49L101.913 139.982C101.121 142.321 99.7977 144.445 98.047 146.187C96.2964 147.928 94.1659 149.241 91.823 150.02C89.4801 150.799 86.9884 151.025 84.5436 150.679C82.0988 150.334 79.7674 149.426 77.7324 148.027C76.7815 147.373 75.9041 146.619 75.1157 145.776L49.3918 118.283C48.1426 116.948 47.2078 115.351 46.6557 113.607C46.1037 111.864 45.9485 110.02 46.2014 108.209C46.4543 106.398 47.1089 104.666 48.1174 103.141C49.1259 101.616 50.4626 100.336 52.0297 99.394Z" fill="#CCCCCC"/>
<path d="M108.498 72.3814C108.967 72.393 109.411 72.5904 109.734 72.93C110.057 73.2696 110.232 73.7237 110.221 74.1923L110.07 80.2606L110.374 80.2883L110.265 84.4099L109.968 84.3728L109.428 106.112C109.41 106.857 109.121 107.568 108.616 108.115C108.112 108.662 107.425 109.007 106.685 109.085L92.8653 110.54C92.5288 110.576 92.1887 110.537 91.8687 110.427C91.5487 110.317 91.2567 110.138 91.013 109.904C90.7694 109.669 90.58 109.384 90.4582 109.068C90.3364 108.752 90.2852 108.413 90.308 108.076L92.4041 77.1201C92.4481 76.4699 92.712 75.854 93.1523 75.3737C93.5926 74.8934 94.1832 74.5773 94.827 74.4773L108.168 72.4041C108.277 72.3862 108.388 72.3787 108.498 72.3814Z" fill="#3F3D56"/>
<path d="M97.8027 75.6035L104.816 74.5137C104.943 74.4941 105.059 74.4334 105.147 74.341C105.235 74.2486 105.291 74.1297 105.305 74.0027C105.32 73.8588 105.383 73.7241 105.483 73.6194C105.583 73.5148 105.715 73.4461 105.858 73.4238L107.335 73.1943C107.537 73.1629 107.743 73.1763 107.939 73.2333C108.135 73.2903 108.315 73.3896 108.469 73.5242C108.622 73.6588 108.744 73.8254 108.826 74.0123C108.908 74.1992 108.948 74.4018 108.943 74.6058L108.184 106.125C108.174 106.516 108.021 106.89 107.754 107.175C107.486 107.461 107.123 107.638 106.733 107.672L92.9233 108.9C92.7472 108.916 92.5697 108.893 92.403 108.834C92.2364 108.775 92.0845 108.68 91.9577 108.557C91.8309 108.434 91.7322 108.285 91.6683 108.12C91.6045 107.955 91.577 107.778 91.5877 107.601L93.451 76.9315C93.4785 76.4796 93.6596 76.0507 93.9644 75.716C94.2691 75.3813 94.6792 75.1609 95.1264 75.0914L96.6838 74.8494C96.741 75.0929 96.8881 75.3059 97.0955 75.4457C97.3029 75.5856 97.5555 75.6419 97.8027 75.6035Z" fill="white"/>
<path d="M65.2635 374.602L75.9953 374.602L81.0992 333.196L65.2598 333.198L65.2635 374.602Z" fill="#FFB8B8"/>
<path d="M96.6934 384.567L62.9645 384.57L62.9633 371.536L83.6606 371.534C85.3719 371.534 87.0665 371.871 88.6477 372.525C90.2288 373.18 91.6654 374.14 92.8756 375.351C94.0858 376.561 95.0459 377.998 95.7009 379.579C96.356 381.161 96.6932 382.856 96.6934 384.567L96.6934 384.567Z" fill="#2F2E41"/>
<path d="M32.2796 374.602L43.0114 374.602L48.1153 333.196L32.2759 333.198L32.2796 374.602Z" fill="#FFB8B8"/>
<path d="M63.71 384.567L29.9811 384.57L29.9799 371.536L50.6772 371.534C54.1334 371.533 57.4481 372.906 59.8923 375.351C62.3364 377.795 63.7096 381.11 63.71 384.567L63.71 384.567Z" fill="#2F2E41"/>
<path d="M63.7099 85.3219C76.4436 85.3219 86.7664 74.9965 86.7664 62.2596C86.7664 49.5226 76.4436 39.1973 63.7099 39.1973C50.9761 39.1973 40.6533 49.5226 40.6533 62.2596C40.6533 74.9965 50.9761 85.3219 63.7099 85.3219Z" fill="#FFB8B8"/>
<path d="M75.5762 123.963C75.3879 118.034 73.719 112.246 70.7218 107.127C67.7246 102.008 63.4942 97.7203 58.4163 94.6553C52.4597 91.1443 45.9396 89.7751 40.7524 94.9636C37.6377 98.1572 35.1434 101.902 33.3964 106.007C28.5981 117.194 28.2842 129.798 32.5197 141.21L44.8656 175.327L73.4402 178.423C73.977 178.481 74.5199 178.423 75.0321 178.252C75.5442 178.081 76.0136 177.802 76.4081 177.433C76.8026 177.065 77.113 176.615 77.3181 176.116C77.5232 175.616 77.6182 175.078 77.5966 174.539L75.5762 123.963Z" fill="#2F2E41"/>
<path d="M46.6774 171.125C46.6774 171.125 25.3291 179.097 30.9106 212.852C35.9191 243.142 31.9389 343.68 31.0689 364.003C31.0275 364.971 31.3626 365.918 32.0038 366.645C32.6451 367.372 33.5428 367.823 34.5088 367.903L46.9706 368.941C47.9467 369.023 48.9159 368.719 49.6715 368.096C50.4272 367.473 50.9094 366.579 51.0154 365.605L57.4514 306.474C57.4766 306.242 57.5874 306.028 57.762 305.873C57.9367 305.718 58.1627 305.634 58.396 305.637C58.6294 305.639 58.8533 305.729 59.0241 305.888C59.1949 306.047 59.3004 306.264 59.32 306.497L64.1158 363.394C64.1966 364.353 64.6421 365.244 65.3604 365.884C66.0786 366.524 67.015 366.863 67.9763 366.833L78.4435 366.502C78.9367 366.486 79.422 366.373 79.8717 366.17C80.3214 365.967 80.7266 365.677 81.0641 365.316C81.4016 364.956 81.6649 364.533 81.8388 364.071C82.0127 363.609 82.0939 363.118 82.0777 362.624L75.9118 175.068L46.6774 171.125Z" fill="#2F2E41"/>
<path d="M68.3371 60.7404C76.0482 63.9038 85.8957 60.2085 89.6239 52.7525C93.3521 45.2965 90.4016 35.1986 83.2459 30.9244C76.0902 26.6502 65.8031 28.841 61.0088 35.6602C57.1089 28.6323 46.8921 26.8406 39.8774 30.7621C32.8627 34.6835 29.0418 42.8974 28.5886 50.9225C28.1355 58.9477 30.5747 66.8536 33.5502 74.3202C38.3633 86.3979 53.8581 92.9009 65.8461 87.8747C60.358 79.6987 61.4414 67.734 68.3371 60.7404Z" fill="#2F2E41"/>
<path d="M99.4105 94.7957C99.2053 94.796 99.0056 94.7297 98.8414 94.6065L98.8312 94.5989L96.6875 92.9586C96.5882 92.8824 96.5049 92.7875 96.4423 92.6792C96.3797 92.5708 96.339 92.4512 96.3227 92.3272C96.3063 92.2031 96.3145 92.077 96.3468 91.9561C96.3791 91.8352 96.435 91.7219 96.5111 91.6226C96.5872 91.5233 96.6821 91.44 96.7904 91.3773C96.8987 91.3147 97.0183 91.2741 97.1424 91.2577C97.2664 91.2413 97.3924 91.2495 97.5133 91.2818C97.6341 91.3142 97.7474 91.37 97.8467 91.4461L99.2352 92.5112L102.516 88.2294C102.592 88.1302 102.687 88.0468 102.796 87.9843C102.904 87.9217 103.023 87.881 103.147 87.8646C103.271 87.8483 103.397 87.8565 103.518 87.8888C103.639 87.9211 103.752 87.9769 103.851 88.0531L103.852 88.0533L103.831 88.0815L103.852 88.0533C104.053 88.2072 104.184 88.4342 104.217 88.6846C104.25 88.9351 104.182 89.1884 104.028 89.3889L100.169 94.4229C100.08 94.5389 99.965 94.6328 99.8336 94.6972C99.7022 94.7617 99.5577 94.795 99.4114 94.7945L99.4105 94.7957Z" fill="#6C63FF"/>
<path d="M523.342 0H228.394C224.242 0.0037617 220.262 1.65513 217.326 4.59159C214.39 7.52806 212.739 11.5097 212.735 15.6625V63.4742C212.739 67.6269 214.39 71.6086 217.326 74.5451C220.262 77.4815 224.242 79.1329 228.394 79.1366H523.342C527.493 79.1329 531.474 77.4815 534.41 74.5451C537.345 71.6086 538.996 67.6269 539 63.4742V15.6625C538.996 11.5097 537.345 7.52804 534.41 4.59158C531.474 1.65512 527.493 0.0037617 523.342 0ZM537.352 63.4742C537.347 67.1892 535.869 70.7506 533.243 73.3776C530.616 76.0046 527.056 77.4827 523.342 77.4879H228.394C224.68 77.4827 221.119 76.0046 218.493 73.3776C215.867 70.7506 214.389 67.1892 214.384 63.4742V15.6625C214.389 11.9474 215.867 8.38598 218.493 5.75903C221.119 3.13207 224.68 1.65393 228.394 1.64867H523.342C527.056 1.65393 530.616 3.13207 533.243 5.75903C535.869 8.38598 537.347 11.9474 537.352 15.6625V63.4742Z" fill="#3F3D56"/>
<path d="M288.416 66.829C283.026 66.829 277.757 65.2302 273.275 62.2348C268.793 59.2394 265.3 54.9819 263.237 50.0007C261.174 45.0194 260.634 39.5382 261.686 34.2501C262.737 28.9621 265.333 24.1047 269.145 20.2922C272.956 16.4797 277.812 13.8833 283.099 12.8314C288.386 11.7796 293.865 12.3194 298.846 14.3827C303.826 16.446 308.082 19.9401 311.077 24.4231C314.071 28.9061 315.67 34.1766 315.67 39.5683C315.662 46.7957 312.788 53.7248 307.678 58.8354C302.569 63.946 295.642 66.8207 288.416 66.829Z" fill="#FFD037"/>
<path d="M483.099 61.8252H341.44C339.691 61.8252 338.014 61.1304 336.778 59.8936C335.541 58.6569 334.847 56.9795 334.847 55.2305C334.847 53.4814 335.541 51.8041 336.778 50.5673C338.014 49.3306 339.691 48.6357 341.44 48.6357H483.099C484.847 48.6357 486.524 49.3306 487.761 50.5673C488.997 51.8041 489.692 53.4814 489.692 55.2305C489.692 56.9795 488.997 58.6569 487.761 59.8936C486.524 61.1304 484.847 61.8252 483.099 61.8252Z" fill="#CCCCCC"/>
<path d="M388.323 33.7978H341.44C339.691 33.7978 338.014 33.103 336.778 31.8663C335.541 30.6295 334.847 28.9521 334.847 27.2031C334.847 25.4541 335.541 23.7767 336.778 22.54C338.014 21.3032 339.691 20.6084 341.44 20.6084H388.323C390.072 20.6084 391.749 21.3032 392.985 22.54C394.222 23.7767 394.916 25.4541 394.916 27.2031C394.916 28.9521 394.222 30.6295 392.985 31.8663C391.749 33.103 390.072 33.7978 388.323 33.7978Z" fill="#CCCCCC"/>
<path d="M287.024 49.1576C286.348 49.1588 285.689 48.94 285.148 48.5342L285.115 48.509L278.051 43.1041C277.723 42.8534 277.448 42.5407 277.241 42.1835C277.034 41.8264 276.9 41.432 276.845 41.0228C276.791 40.6137 276.818 40.1978 276.924 39.799C277.031 39.4002 277.215 39.0263 277.466 38.6987C277.717 38.3712 278.03 38.0963 278.387 37.8899C278.745 37.6836 279.139 37.5497 279.548 37.4959C279.958 37.4422 280.373 37.4697 280.772 37.5769C281.17 37.684 281.544 37.8687 281.871 38.1203L286.446 41.6298L297.258 27.521C297.509 27.1939 297.822 26.9194 298.178 26.7132C298.535 26.5069 298.929 26.373 299.337 26.319C299.746 26.265 300.161 26.2921 300.559 26.3986C300.957 26.5051 301.33 26.689 301.657 26.9398L301.658 26.9405L301.591 27.0337L301.66 26.9405C302.32 27.4476 302.752 28.1959 302.86 29.021C302.969 29.8462 302.746 30.6808 302.241 31.3418L289.524 47.9294C289.229 48.3116 288.851 48.6209 288.418 48.8332C287.985 49.0456 287.509 49.1553 287.027 49.1539L287.024 49.1576Z" fill="white"/>
<path d="M396.611 128.641H101.663C97.5117 128.644 93.531 130.296 90.5953 133.232C87.6596 136.169 86.0086 140.15 86.0049 144.303V192.115C86.0086 196.268 87.6596 200.249 90.5953 203.186C93.531 206.122 97.5117 207.773 101.663 207.777H396.611C400.763 207.773 404.743 206.122 407.679 203.186C410.615 200.249 412.266 196.268 412.27 192.115V144.303C412.266 140.15 410.615 136.169 407.679 133.232C404.743 130.296 400.763 128.644 396.611 128.641Z" fill="white"/>
<path d="M396.611 128.641H101.663C97.5117 128.644 93.531 130.296 90.5953 133.232C87.6596 136.169 86.0086 140.15 86.0049 144.303V192.115C86.0086 196.268 87.6596 200.249 90.5953 203.186C93.531 206.122 97.5117 207.773 101.663 207.777H396.611C400.763 207.773 404.743 206.122 407.679 203.186C410.615 200.249 412.266 196.268 412.27 192.115V144.303C412.266 140.15 410.615 136.169 407.679 133.232C404.743 130.296 400.763 128.644 396.611 128.641ZM410.621 192.115C410.616 195.83 409.138 199.391 406.512 202.018C403.886 204.645 400.325 206.123 396.611 206.129H101.663C97.9493 206.123 94.3888 204.645 91.7625 202.018C89.1362 199.391 87.6584 195.83 87.6531 192.115V144.303C87.6584 140.588 89.1361 137.027 91.7624 134.4C94.3887 131.773 97.9493 130.295 101.663 130.289H396.611C400.325 130.295 403.886 131.773 406.512 134.4C409.138 137.027 410.616 140.588 410.621 144.303V192.115Z" fill="#3F3D56"/>
<path d="M161.686 195.47C156.295 195.47 151.026 193.871 146.544 190.875C142.062 187.88 138.569 183.623 136.506 178.641C134.443 173.66 133.904 168.179 134.955 162.891C136.007 157.603 138.603 152.745 142.414 148.933C146.226 145.12 151.082 142.524 156.368 141.472C161.655 140.42 167.135 140.96 172.115 143.023C177.095 145.087 181.352 148.581 184.346 153.064C187.341 157.547 188.939 162.817 188.939 168.209C188.931 175.436 186.057 182.365 180.948 187.476C175.839 192.587 168.911 195.461 161.686 195.47Z" fill="#FFD037"/>
<path d="M356.368 190.466H214.709C212.961 190.466 211.284 189.771 210.047 188.534C208.811 187.298 208.116 185.62 208.116 183.871C208.116 182.122 208.811 180.445 210.047 179.208C211.284 177.971 212.961 177.276 214.709 177.276H356.368C358.117 177.276 359.794 177.971 361.03 179.208C362.266 180.445 362.961 182.122 362.961 183.871C362.961 185.62 362.266 187.298 361.03 188.534C359.794 189.771 358.117 190.466 356.368 190.466Z" fill="#CCCCCC"/>
<path d="M261.593 162.438H214.709C213.843 162.438 212.986 162.268 212.186 161.936C211.386 161.605 210.659 161.119 210.047 160.507C209.435 159.895 208.949 159.168 208.618 158.367C208.287 157.567 208.116 156.71 208.116 155.844C208.116 154.978 208.287 154.12 208.618 153.32C208.949 152.52 209.435 151.793 210.047 151.181C210.659 150.568 211.386 150.082 212.186 149.751C212.986 149.42 213.843 149.249 214.709 149.249H261.593C263.341 149.249 265.018 149.944 266.255 151.181C267.491 152.417 268.186 154.095 268.186 155.844C268.186 157.593 267.491 159.27 266.255 160.507C265.018 161.744 263.341 162.438 261.593 162.438Z" fill="#CCCCCC"/>
<path d="M160.293 177.797C159.617 177.798 158.959 177.58 158.418 177.174L158.384 177.149L151.321 171.744C150.993 171.493 150.717 171.18 150.511 170.823C150.304 170.466 150.169 170.072 150.115 169.662C150.06 169.253 150.087 168.837 150.194 168.439C150.3 168.04 150.484 167.666 150.735 167.338C150.986 167.011 151.3 166.736 151.657 166.53C152.014 166.323 152.409 166.189 152.818 166.136C153.227 166.082 153.643 166.109 154.041 166.217C154.44 166.324 154.813 166.508 155.14 166.76L159.716 170.269L170.528 156.161C170.778 155.834 171.091 155.559 171.448 155.353C171.805 155.147 172.198 155.013 172.607 154.959C173.016 154.905 173.431 154.932 173.829 155.038C174.227 155.145 174.6 155.329 174.927 155.579L174.928 155.58L174.861 155.673L174.93 155.58C175.59 156.087 176.021 156.836 176.13 157.661C176.239 158.486 176.016 159.32 175.51 159.981L162.793 176.569C162.499 176.951 162.121 177.261 161.688 177.473C161.255 177.685 160.778 177.795 160.296 177.794L160.293 177.797Z" fill="white"/>
<path d="M92.0988 139.426C90.9136 138.925 89.6329 138.689 88.3469 138.736C87.0609 138.784 85.8008 139.112 84.6556 139.699C83.5103 140.286 82.5076 141.117 81.7182 142.134C80.9288 143.151 80.3718 144.328 80.0864 145.583L60.2598 148.98L59.3853 161.535L87.3169 156.344C89.4567 156.684 91.6468 156.227 93.4721 155.059C95.2974 153.892 96.6312 152.095 97.2206 150.01C97.8101 147.924 97.6143 145.695 96.6703 143.744C95.7263 141.794 94.0998 140.257 92.0989 139.426L92.0988 139.426Z" fill="#FFB8B8"/>
<path d="M58.0415 103.389C60.9143 104.68 63.1802 107.027 64.3691 109.944C65.558 112.861 65.5788 116.124 64.4272 119.056L52.9344 148.317L67.3626 145.664C68.2635 145.499 69.194 145.668 69.9787 146.141C70.7634 146.614 71.3483 147.357 71.6232 148.231L74.4994 157.374C74.6497 157.851 74.7029 158.354 74.656 158.853C74.6092 159.351 74.4631 159.836 74.2264 160.277C73.9897 160.718 73.6672 161.108 73.2779 161.422C72.8885 161.737 72.4402 161.971 71.9592 162.11L53.2059 167.526C50.8337 168.211 48.335 168.337 45.906 167.893C43.4769 167.45 41.1837 166.449 39.2063 164.97C37.2289 163.491 35.6211 161.574 34.5091 159.369C33.3972 157.164 32.8114 154.731 32.7976 152.261C32.7912 151.107 32.9098 149.956 33.1513 148.827L41.0311 112.006C41.4137 110.218 42.1914 108.539 43.307 107.09C44.4227 105.641 45.8481 104.461 47.479 103.635C49.1098 102.808 50.9048 102.357 52.7324 102.315C54.56 102.272 56.374 102.639 58.0415 103.389Z" fill="#CCCCCC"/>
</g>
<defs>
<clipPath id="clip0">
<rect width="539" height="386" fill="white"/>
</clipPath>
</defs>
</svg>
