<svg width="24" height="24" viewBox="0 0 24 24" fill="none" xmlns="http://www.w3.org/2000/svg">
<path d="M14.8711 6.27375L12.9241 8.165C12.1778 7.97158 11.392 7.97138 10.6456 8.1644C9.89929 8.35743 9.21873 8.73688 8.67239 9.26458C8.12606 9.79229 7.73322 10.4496 7.53338 11.1705C7.33355 11.8914 7.33375 12.6505 7.534 13.3712L4.498 16.2931C3.046 15.2306 1.836 13.8494 1 12.2662C2.25501 9.88927 4.31429 7.99863 6.83564 6.9085C9.357 5.81836 12.1886 5.59438 14.8601 6.27375H14.8711ZM19.0511 8.23937C20.5141 9.30187 21.7239 10.6831 22.5709 12.2662C21.3152 14.6476 19.2522 16.5413 16.7262 17.6318C14.2002 18.7222 11.3635 18.9435 8.689 18.2587L10.636 16.3675C11.3822 16.5609 12.168 16.5611 12.9144 16.3681C13.6607 16.1751 14.3413 15.7957 14.8876 15.2679C15.4339 14.7402 15.8267 14.0828 16.0266 13.362C16.2265 12.6411 16.2263 11.882 16.0261 11.1612L19.0621 8.23937H19.0511ZM18.7761 4L20.3381 5.50875L4.784 20.5325L3.222 19.0237L18.7761 4Z" fill="#CCCCCC"/>
</svg>
