<svg width="34" height="34" viewBox="0 0 34 34" fill="none" xmlns="http://www.w3.org/2000/svg">
<path d="M26.9167 4.25H7.08333C5.525 4.25 4.25 5.525 4.25 7.08333V26.9167C4.25 28.475 5.525 29.75 7.08333 29.75H26.9167C28.475 29.75 29.75 28.475 29.75 26.9167V7.08333C29.75 5.525 28.475 4.25 26.9167 4.25ZM11.3333 24.0833C10.5542 24.0833 9.91667 23.4458 9.91667 22.6667V18.4167C9.91667 17.6375 10.5542 17 11.3333 17C12.1125 17 12.75 17.6375 12.75 18.4167V22.6667C12.75 23.4458 12.1125 24.0833 11.3333 24.0833ZM17 24.0833C16.2208 24.0833 15.5833 23.4458 15.5833 22.6667V21.25C15.5833 20.4708 16.2208 19.8333 17 19.8333C17.7792 19.8333 18.4167 20.4708 18.4167 21.25V22.6667C18.4167 23.4458 17.7792 24.0833 17 24.0833ZM17 17C16.2208 17 15.5833 16.3625 15.5833 15.5833C15.5833 14.8042 16.2208 14.1667 17 14.1667C17.7792 14.1667 18.4167 14.8042 18.4167 15.5833C18.4167 16.3625 17.7792 17 17 17ZM22.6667 24.0833C21.8875 24.0833 21.25 23.4458 21.25 22.6667V11.3333C21.25 10.5542 21.8875 9.91667 22.6667 9.91667C23.4458 9.91667 24.0833 10.5542 24.0833 11.3333V22.6667C24.0833 23.4458 23.4458 24.0833 22.6667 24.0833Z" fill="#30A6CA"/>
</svg>
