<svg width="34" height="34" viewBox="0 0 34 34" fill="none" xmlns="http://www.w3.org/2000/svg">
<path d="M14.1667 22.6667V11.3333C14.1667 9.775 15.4275 8.5 17 8.5H29.75V7.08333C29.75 5.525 28.475 4.25 26.9167 4.25H7.08333C5.51083 4.25 4.25 5.525 4.25 7.08333V26.9167C4.25 28.475 5.51083 29.75 7.08333 29.75H26.9167C28.475 29.75 29.75 28.475 29.75 26.9167V25.5H17C15.4275 25.5 14.1667 24.225 14.1667 22.6667ZM18.4167 11.3333C17.6375 11.3333 17 11.9708 17 12.75V21.25C17 22.0292 17.6375 22.6667 18.4167 22.6667H31.1667V11.3333H18.4167ZM22.6667 19.125C21.4908 19.125 20.5417 18.1758 20.5417 17C20.5417 15.8242 21.4908 14.875 22.6667 14.875C23.8425 14.875 24.7917 15.8242 24.7917 17C24.7917 18.1758 23.8425 19.125 22.6667 19.125Z" fill="#30A6CA"/>
</svg>
