<svg width="24" height="24" viewBox="0 0 24 24" fill="none" xmlns="http://www.w3.org/2000/svg">
<path d="M12 1C11.45 1 11 1.45 11 2V3C11 3.55 11.45 4 12 4C12.55 4 13 3.55 13 3V2C13 1.45 12.55 1 12 1Z" fill="#30A6CA"/>
<path d="M12 23C12.55 23 13 22.55 13 22V21C13 20.45 12.55 20 12 20C11.45 20 11 20.45 11 21V22C11 22.55 11.45 23 12 23Z" fill="#30A6CA"/>
<path d="M20 12C20 12.55 20.45 13 21 13H22C22.55 13 23 12.55 23 12C23 11.45 22.55 11 22 11H21C20.45 11 20 11.45 20 12Z" fill="#30A6CA"/>
<path d="M3 11H2C1.45 11 1 11.45 1 12C1 12.55 1.45 13 2 13H3C3.55 13 4 12.55 4 12C4 11.45 3.55 11 3 11Z" fill="#30A6CA"/>
<path d="M19.78 4.22023C19.39 3.83023 18.76 3.83023 18.37 4.22023L18 4.59023C17.61 4.98023 17.61 5.61023 18 6.00023C18.39 6.39023 19.02 6.39023 19.41 6.00023L19.77 5.64023C20.17 5.25023 20.17 4.61023 19.78 4.22023Z" fill="#30A6CA"/>
<path d="M4.21997 19.7795C4.60997 20.1695 5.23997 20.1695 5.62997 19.7795L5.99997 19.4095C6.38997 19.0195 6.38997 18.3895 5.99997 17.9995C5.60997 17.6095 4.97997 17.6095 4.58997 17.9995L4.22997 18.3595C3.82997 18.7495 3.82997 19.3895 4.21997 19.7795Z" fill="#30A6CA"/>
<path d="M18 19.4095L18.36 19.7695C18.75 20.1595 19.38 20.1595 19.77 19.7695C20.16 19.3795 20.16 18.7495 19.77 18.3595L19.41 17.9995C19.02 17.6095 18.39 17.6095 18 17.9995C17.61 18.3895 17.61 19.0195 18 19.4095Z" fill="#30A6CA"/>
<path d="M6 4.59023L5.64 4.22023C5.25 3.83023 4.62 3.83023 4.23 4.22023C3.84 4.61023 3.84 5.24023 4.23 5.63023L4.59 6.00023C4.98 6.39023 5.61 6.39023 6 6.00023C6.39 5.61023 6.39 4.98023 6 4.59023Z" fill="#30A6CA"/>
<path d="M12 18C15.3137 18 18 15.3137 18 12C18 8.68629 15.3137 6 12 6C8.68629 6 6 8.68629 6 12C6 15.3137 8.68629 18 12 18Z" fill="#30A6CA"/>
</svg>
