<svg width="439" height="445" viewBox="0 0 439 445" fill="none" xmlns="http://www.w3.org/2000/svg">
<g clip-path="url(#clip0)">
<path d="M185.08 205.098L343.587 204.815C343.87 204.815 344.142 204.703 344.342 204.502C344.543 204.302 344.655 204.03 344.655 203.747C344.655 203.464 344.543 203.192 344.342 202.992C344.142 202.791 343.87 202.679 343.587 202.679L185.08 202.962C184.797 202.962 184.525 203.074 184.325 203.274C184.124 203.475 184.012 203.747 184.012 204.03C184.012 204.313 184.124 204.585 184.325 204.785C184.525 204.985 184.797 205.098 185.08 205.098Z" fill="#3F3D56"/>
<path d="M182.712 220.053C190.972 220.053 197.668 213.357 197.668 205.098C197.668 196.838 190.972 190.143 182.712 190.143C174.452 190.143 167.756 196.838 167.756 205.098C167.756 213.357 174.452 220.053 182.712 220.053Z" fill="#3F3D56"/>
<path d="M336.481 205.022C316.205 205.022 296.384 199.01 279.525 187.746C262.666 176.482 249.526 160.472 241.767 141.74C234.007 123.009 231.977 102.397 235.933 82.5122C239.889 62.627 249.652 44.3613 263.99 30.0249C278.327 15.6884 296.594 5.92518 316.481 1.96977C336.368 -1.98565 356.981 0.0444189 375.714 7.80324C394.446 15.5621 410.458 28.7012 421.723 45.559C432.987 62.4169 439 82.2364 439 102.511C438.969 129.689 428.158 155.746 408.939 174.963C389.72 194.181 363.662 204.991 336.481 205.022ZM336.481 7.06978C317.604 7.06978 299.15 12.6673 283.453 23.1545C267.757 33.6418 255.523 48.5477 248.299 65.9873C241.074 83.4269 239.184 102.617 242.867 121.131C246.55 139.645 255.641 156.651 268.989 169.998C282.338 183.346 299.345 192.436 317.86 196.119C336.376 199.801 355.567 197.911 373.008 190.687C390.449 183.464 405.356 171.231 415.844 155.535C426.332 139.84 431.93 121.388 431.93 102.511C431.901 77.2073 421.836 52.9481 403.942 35.0556C386.048 17.1631 361.787 7.0985 336.481 7.06978Z" fill="#3F3D56"/>
<path d="M380.717 143.585C376.965 143.588 373.296 142.478 370.174 140.395C367.053 138.313 364.619 135.351 363.181 131.886C361.743 128.42 361.365 124.606 362.094 120.926C362.824 117.245 364.628 113.864 367.28 111.209C369.932 108.554 373.311 106.745 376.991 106.01C380.67 105.276 384.485 105.649 387.953 107.082C391.421 108.516 394.386 110.945 396.472 114.064C398.559 117.182 399.674 120.849 399.677 124.601C399.678 129.632 397.682 134.458 394.127 138.017C390.571 141.577 385.748 143.58 380.717 143.585ZM336.481 143.585C331.455 143.58 326.636 141.58 323.081 138.026C319.527 134.472 317.528 129.654 317.522 124.627V80.3949C317.522 75.3668 319.519 70.5447 323.075 66.9893C326.631 63.4339 331.453 61.4365 336.482 61.4365C341.51 61.4365 346.333 63.4339 349.888 66.9893C353.444 70.5447 355.441 75.3668 355.441 80.3949V124.627C355.436 129.654 353.436 134.472 349.882 138.027C346.327 141.581 341.508 143.58 336.481 143.585ZM292.259 143.585C287.228 143.58 282.406 141.579 278.849 138.022C275.293 134.466 273.292 129.643 273.286 124.614V106.941C273.286 101.91 275.285 97.0844 278.843 93.5265C282.401 89.9687 287.227 87.9699 292.259 87.9699C297.291 87.9699 302.117 89.9687 305.675 93.5265C309.233 97.0844 311.232 101.91 311.232 106.941V124.614C311.226 129.644 309.225 134.466 305.668 138.022C302.111 141.579 297.289 143.58 292.259 143.585Z" fill="#FFD037"/>
<path d="M27.625 353.577V355.297C27.6275 358.146 28.7604 360.877 30.7752 362.892C32.7899 364.907 35.5218 366.039 38.3711 366.042H129.498C132.348 366.041 135.08 364.908 137.095 362.894C139.11 360.879 140.243 358.146 140.244 355.297V353.577C140.249 351.063 139.366 348.627 137.751 346.7C137.213 346.061 136.604 345.484 135.937 344.981H88.6712C88.1012 344.981 87.5547 344.754 87.1517 344.351C86.7487 343.948 86.5222 343.402 86.5219 342.832H38.3711C35.5223 342.836 32.7912 343.969 30.7768 345.984C28.7624 347.998 27.6289 350.729 27.625 353.577Z" fill="#3F3D56"/>
<path d="M77.9208 444.701H89.0967L89.0967 365.616H77.9208L77.9208 444.701Z" fill="#3F3D56"/>
<path d="M46.1123 444.308C46.1123 445.515 63.0477 444.775 83.9385 444.775C104.829 444.775 121.765 445.515 121.765 444.308C121.765 443.1 104.829 433.525 83.9385 433.525C63.0477 433.525 46.1123 443.1 46.1123 444.308Z" fill="#3F3D56"/>
<path d="M45.1624 351.764L83.298 357.85L127.606 364.925L142.969 367.375C144.444 367.607 145.951 367.246 147.159 366.369C148.368 365.492 149.18 364.172 149.417 362.698L150.113 358.349L150.758 354.3L151.29 350.964C151.411 350.219 151.379 349.456 151.195 348.723C151.012 347.99 150.682 347.302 150.225 346.701C149.684 345.961 148.966 345.37 148.135 344.981H88.671C88.1011 344.981 87.5545 344.755 87.1515 344.352C86.7485 343.949 86.522 343.402 86.5218 342.832V341.139C86.522 340.569 86.7485 340.022 87.1515 339.619C87.5545 339.217 88.1011 338.99 88.671 338.99H112.037L101.265 337.271L68.1502 331.984L48.8161 328.898C47.3377 328.664 45.8268 329.025 44.6148 329.904C43.4028 330.782 42.5888 332.105 42.3512 333.583L40.477 345.308C40.2482 346.785 40.6122 348.292 41.4899 349.501C42.3675 350.71 43.6876 351.524 45.1624 351.764Z" fill="#44AECF"/>
<path d="M127.606 350.131V415.643C127.609 417.135 128.203 418.566 129.258 419.622C130.314 420.677 131.745 421.271 133.237 421.273H145.127C146.62 421.271 148.051 420.677 149.106 419.622C150.162 418.566 150.756 417.135 150.758 415.643V350.131C150.76 348.888 150.345 347.68 149.58 346.701C149.014 345.948 148.261 345.356 147.396 344.981H130.959C130.098 345.358 129.349 345.95 128.784 346.701C128.02 347.681 127.606 348.888 127.606 350.131Z" fill="#44AECF"/>
<path d="M91.7745 239.248C91.8349 239.832 91.9857 240.403 92.2215 240.941C92.5795 241.763 93.1311 242.485 93.8292 243.047L93.8552 243.065L127.778 270.581L128.277 270.977L135.301 276.676L137.424 278.395H174.158L172.044 276.676L143.012 253.122L123.557 237.339L108.418 225.064C107.532 224.342 106.446 223.91 105.306 223.826C105.302 223.821 105.295 223.818 105.289 223.818C104.951 223.793 104.611 223.799 104.274 223.835C103.77 223.886 103.275 224.007 102.804 224.196C102.483 224.312 102.176 224.468 101.893 224.66C101.359 224.986 100.885 225.402 100.492 225.889L93.1156 234.975L93.004 235.122C92.5364 235.694 92.1869 236.353 91.9759 237.062C91.7648 237.77 91.6964 238.513 91.7745 239.248Z" fill="#44AECF"/>
<path d="M93.8552 243.065C94.4945 244.663 95.4243 246.129 96.5976 247.388L119.182 271.647C119.727 272.148 120.367 272.537 121.063 272.791C121.759 273.044 122.499 273.158 123.239 273.125C123.98 273.093 124.706 272.914 125.377 272.6C126.049 272.286 126.651 271.842 127.15 271.295L127.778 270.581L128.053 270.272L137.811 259.329L142.006 254.618C142.285 254.328 142.528 254.004 142.728 253.655C142.831 253.483 142.926 253.303 143.012 253.122C143.364 252.319 143.525 251.445 143.485 250.569C143.456 249.824 143.278 249.092 142.96 248.417C142.643 247.742 142.192 247.138 141.636 246.641L115.45 226.629C112.561 224.413 108.923 223.408 105.306 223.826C105.302 223.821 105.295 223.818 105.289 223.818C104.486 223.918 103.692 224.085 102.916 224.316C102.572 224.411 102.237 224.531 101.893 224.66C99.6729 225.495 97.7045 226.886 96.1762 228.7C94.5134 230.654 93.418 233.026 93.0088 235.558C92.5996 238.091 92.8924 240.687 93.8552 243.065V243.065Z" fill="#2F2E41"/>
<path d="M83.1313 203.848C106.929 203.848 126.221 184.558 126.221 160.762C126.221 136.966 106.929 117.676 83.1313 117.676C59.3337 117.676 40.042 136.966 40.042 160.762C40.042 184.558 59.3337 203.848 83.1313 203.848Z" fill="#44AECF"/>
<path d="M71.6575 345.824L87.6389 348.368L88.0004 348.429L112.295 352.305L127.606 354.755L150.113 358.349L150.758 358.452L154.101 358.985L169.464 361.435C170.939 361.667 172.446 361.306 173.655 360.429C174.863 359.552 175.675 358.232 175.912 356.758L177.253 348.368L177.786 345.033C177.786 345.016 177.794 344.999 177.794 344.981H88.6707C88.1008 344.981 87.5542 344.755 87.1512 344.352C86.7482 343.949 86.5217 343.402 86.5215 342.832V341.139C86.5217 340.569 86.7482 340.023 87.1512 339.62C87.5542 339.217 88.1008 338.99 88.6707 338.99H116.834V329.594L115.115 329.319L106.621 327.961L75.3028 322.966C73.8266 322.732 72.3177 323.093 71.1072 323.969C69.8967 324.846 69.0836 326.167 68.8463 327.643L68.1499 331.984L66.9721 339.377C66.7414 340.853 67.1049 342.36 67.9831 343.568C68.8612 344.776 70.1825 345.588 71.6575 345.824Z" fill="#44AECF"/>
<path d="M24.4863 307.76C24.4863 342.884 28.0543 363.893 83.0743 357.876C83.1515 357.867 83.2204 357.859 83.2976 357.85C93.1109 356.881 102.816 355.025 112.295 352.306C117.221 350.867 122.008 348.992 126.6 346.701C127.683 346.151 128.723 345.575 129.747 344.982H88.6707C88.1007 344.981 87.5542 344.755 87.1512 344.352C86.7482 343.949 86.5217 343.402 86.5215 342.832V341.139C86.5217 340.569 86.7482 340.023 87.1512 339.62C87.5542 339.217 88.1007 338.99 88.6707 338.99H116.834V284.696C116.836 283.026 117.501 281.424 118.682 280.243C119.863 279.062 121.465 278.397 123.135 278.395H146.046C145.848 277.828 145.651 277.252 145.436 276.676C143.287 270.729 140.739 264.933 137.811 259.329C133.799 251.545 129.024 244.18 123.557 237.339C119.75 232.573 115.476 228.199 110.799 224.282C102.176 217.164 92.7886 212.763 83.2632 212.763C48.1365 212.763 24.4863 272.636 24.4863 307.76Z" fill="#2F2E41"/>
<path d="M82.2265 176.731L82.1816 175.121C85.1773 175.038 87.8182 174.85 89.8027 173.4C90.3653 172.966 90.8278 172.415 91.1587 171.786C91.4895 171.157 91.6809 170.464 91.72 169.754C91.7549 169.321 91.6893 168.885 91.5283 168.481C91.3673 168.077 91.1153 167.715 90.7918 167.424C89.4745 166.312 87.3548 166.672 85.8098 167.38L84.4775 167.991L87.0324 149.321L88.6277 149.54L86.4545 165.421C88.5538 164.804 90.499 165.07 91.8313 166.195C92.3428 166.641 92.7442 167.2 93.004 167.827C93.2639 168.455 93.3751 169.134 93.3291 169.811C93.282 170.765 93.0271 171.696 92.582 172.541C92.1369 173.385 91.5125 174.123 90.7525 174.7C88.2027 176.564 84.8891 176.656 82.2265 176.731Z" fill="#2F2E41"/>
<path d="M105.19 150.909H96.5176V152.519H105.19V150.909Z" fill="#2F2E41"/>
<path d="M77.8149 150.909H69.1426V152.519H77.8149V150.909Z" fill="#2F2E41"/>
<path d="M48.7427 148.923C52.0939 143.879 57.9905 141.741 63.8053 141.221C70.3502 140.635 76.6743 141.897 83.0644 143.123C90.097 144.473 97.5399 145.735 104.626 144.029C107.761 143.304 110.69 141.877 113.193 139.855C115.696 137.833 117.707 135.27 119.075 132.358C121.67 126.676 122.229 120.274 120.658 114.229C118.998 107.8 114.876 102.142 109.879 97.8694C99.681 89.1483 85.8802 85.2288 72.6062 85.598C59.3825 85.9393 46.6015 90.433 36.0742 98.4424C25.5294 106.741 18.1091 118.368 15.0245 131.427C11.7989 144.378 12.8497 158.026 18.0198 170.331C20.9245 177.069 25.1255 183.143 28.3672 189.711C31.3854 195.827 33.7098 202.937 31.8319 209.758C30.184 215.743 25.346 221.061 19.2723 222.686C16.509 223.411 13.585 223.219 10.94 222.139C8.29505 221.06 6.07221 219.15 4.60582 216.699C1.56962 211.911 1.49698 205.641 6.05565 201.776C7.20503 200.785 8.54392 200.038 9.99089 199.581C11.4379 199.124 12.9627 198.966 14.4726 199.117C15.9826 199.268 17.4461 199.724 18.7743 200.458C20.1024 201.192 21.2673 202.188 22.1983 203.386C24.0477 205.788 24.8755 208.823 24.5023 211.831C24.2777 213.351 26.6047 214.007 26.8314 212.473C27.3753 209.291 26.7721 206.02 25.1291 203.242C23.4861 200.464 20.91 198.359 17.8599 197.303C14.8098 196.247 11.4837 196.308 8.47432 197.475C5.4649 198.642 2.96761 200.839 1.42737 203.676C-1.32177 208.844 0.161553 215.078 3.65131 219.496C5.45183 221.849 7.89225 223.634 10.6806 224.637C13.469 225.639 16.4872 225.817 19.3741 225.149C25.7264 223.683 30.9229 218.634 33.3667 212.702C36.0873 206.097 34.8408 198.727 32.1886 192.318C29.3217 185.39 25.0643 179.177 21.6974 172.501C18.6489 166.468 16.709 159.936 15.9701 153.218C14.4913 139.725 17.5537 126.125 24.6729 114.569C31.9293 103.192 43.005 94.7747 55.9103 90.8299C68.6355 86.8356 82.6702 86.958 95.1298 91.8668C107.403 96.7022 119.254 107.24 119.112 121.393C119.051 127.438 116.806 133.604 112.175 137.636C106.641 142.455 98.9346 142.867 91.9773 142.115C84.9759 141.358 78.1769 139.313 71.1452 138.792C65.0292 138.338 58.4309 138.81 52.97 141.848C50.4269 143.266 48.2618 145.275 46.6571 147.704C45.7946 149.002 47.8856 150.213 48.7427 148.923V148.923Z" fill="#2F2E41"/>
<path d="M55.5987 254.377C55.6673 254.533 55.7447 254.685 55.8304 254.833C55.9169 254.987 56.0116 255.136 56.1142 255.28L74.9585 282.401L76.4201 284.507L91.7912 306.617L106.621 327.961L112.621 336.609C112.783 336.844 112.964 337.066 113.163 337.271C114.091 338.247 115.339 338.857 116.679 338.99H116.834V302.103L115.114 299.628L95.8319 271.879L75.1222 242.076C74.2691 240.85 72.9648 240.012 71.4951 239.746C70.0254 239.481 68.5103 239.808 67.2817 240.657L60.9285 245.067L57.5154 247.44C56.4363 248.191 55.654 249.295 55.3039 250.562C54.9538 251.829 55.0582 253.179 55.5987 254.377Z" fill="#44AECF"/>
<path d="M52.6504 253.715L53.5012 255.426L53.51 255.434L53.7422 255.89L67.5571 283.312C68.3359 284.587 69.588 285.502 71.0397 285.857C72.4914 286.211 74.0243 285.976 75.3032 285.203L76.1972 284.644L76.4205 284.507L94.2335 273.332C94.8693 272.947 95.4225 272.44 95.8613 271.84C96.3 271.24 96.6156 270.559 96.7898 269.837C96.9641 269.114 96.9934 268.364 96.8763 267.63C96.7592 266.897 96.4978 266.193 96.1074 265.561L76.5411 239.033C74.6232 236.433 71.8686 234.573 68.7405 233.765C65.6124 232.957 62.3015 233.251 59.3645 234.597C58.7017 234.896 58.0635 235.247 57.4559 235.646C54.58 237.546 52.5019 240.436 51.6161 243.766C50.7302 247.097 51.0983 250.638 52.6504 253.715Z" fill="#2F2E41"/>
<path d="M154.102 344.981V409.703C154.104 411.195 154.698 412.626 155.753 413.682C156.809 414.737 158.24 415.331 159.733 415.333H171.622C173.115 415.331 174.546 414.737 175.602 413.682C176.657 412.626 177.251 411.195 177.253 409.703V344.981H154.102Z" fill="#44AECF"/>
<path d="M84.8027 341.139V342.832C84.804 343.727 85.1144 344.594 85.6815 345.287C86.2487 345.979 87.0376 346.454 87.9149 346.632C88.0349 346.649 88.1554 346.675 88.2759 346.684C88.4048 346.692 88.5336 346.701 88.6713 346.701H221.201C223.329 346.7 225.369 345.855 226.875 344.352C228.38 342.848 229.227 340.808 229.23 338.68V284.696C229.227 282.568 228.38 280.529 226.875 279.025C225.369 277.521 223.329 276.676 221.201 276.676H123.136C121.009 276.678 118.971 277.524 117.467 279.027C115.963 280.531 115.117 282.57 115.115 284.696V337.271H88.6713C87.6453 337.271 86.6614 337.678 85.9359 338.404C85.2104 339.129 84.8028 340.113 84.8027 341.139Z" fill="white"/>
<path d="M84.8027 341.139V342.832C84.804 343.727 85.1144 344.594 85.6815 345.287C86.2487 345.979 87.0376 346.454 87.9149 346.632C88.0349 346.649 88.1554 346.675 88.2759 346.684C88.4048 346.692 88.5336 346.701 88.6713 346.701H221.201C223.329 346.7 225.369 345.855 226.875 344.352C228.38 342.848 229.227 340.808 229.23 338.68V284.696C229.227 282.568 228.38 280.529 226.875 279.025C225.369 277.521 223.329 276.676 221.201 276.676H123.136C121.009 276.678 118.971 277.524 117.467 279.027C115.963 280.531 115.117 282.57 115.115 284.696V337.271H88.6713C87.6453 337.271 86.6614 337.678 85.9359 338.404C85.2104 339.129 84.8028 340.113 84.8027 341.139ZM86.5221 342.832V341.139C86.5223 340.569 86.7488 340.023 87.1518 339.62C87.5548 339.217 88.1014 338.99 88.6713 338.99H116.835V284.696C116.837 283.026 117.502 281.424 118.683 280.243C119.864 279.062 121.466 278.397 123.136 278.395H221.201C222.873 278.396 224.476 279.06 225.659 280.241C226.842 281.422 227.508 283.024 227.511 284.696V338.68C227.508 340.352 226.842 341.954 225.659 343.136C224.476 344.317 222.873 344.981 221.201 344.982H88.6713C88.1014 344.981 87.5549 344.755 87.1519 344.352C86.7488 343.949 86.5223 343.402 86.5221 342.832V342.832Z" fill="#3F3D56"/>
<path d="M172.172 318.299C175.823 318.299 178.783 315.34 178.783 311.689C178.783 308.038 175.823 305.078 172.172 305.078C168.52 305.078 165.561 308.038 165.561 311.689C165.561 315.34 168.52 318.299 172.172 318.299Z" fill="#44AECF"/>
<path d="M116.86 338.182H115.141V345.918H116.86V338.182Z" fill="#3F3D56"/>
</g>
<defs>
<clipPath id="clip0">
<rect width="439" height="445" fill="white"/>
</clipPath>
</defs>
</svg>
